STARTFONT 2.3
FONT -FontForge-Indie Flower-Book-R-Normal--16-160-72-72-P-73-ISO10646-1
SIZE 16 72 72  4
FONTBOUNDINGBOX 21 24 -3 -8
COMMENT "Generated by fontforge, http://fontforge.sourceforge.net"
COMMENT "Copyright (c) 2010, Kimberly Geswein (kimberlygeswein.com)"
STARTPROPERTIES 40
FOUNDRY "FontForge"
FAMILY_NAME "Indie Flower"
WEIGHT_NAME "Book"
SLANT "R"
SETWIDTH_NAME "Normal"
ADD_STYLE_NAME ""
PIXEL_SIZE 16
POINT_SIZE 160
RESOLUTION_X 72
RESOLUTION_Y 72
SPACING "P"
AVERAGE_WIDTH 73
CHARSET_REGISTRY "ISO10646"
CHARSET_ENCODING "1"
FONTNAME_REGISTRY ""
CHARSET_COLLECTIONS "ISO8859-2 ISO8859-9 ISO8859-4 ISO10646-1"
BITS_PER_PIXEL 4
FONT_NAME "IndieFlower"
FACE_NAME "Indie Flower"
COPYRIGHT "Copyright (c) 2010, Kimberly Geswein (kimberlygeswein.com)"
FONT_VERSION "1.001 2010"
FONT_ASCENT 13
FONT_DESCENT 3
UNDERLINE_POSITION -2
UNDERLINE_THICKNESS 1
X_HEIGHT 6
CAP_HEIGHT 8
RAW_ASCENT 799
RAW_DESCENT 200
NORM_SPACE 6
RELATIVE_WEIGHT 40
RELATIVE_SETWIDTH 50
SUPERSCRIPT_X 0
SUPERSCRIPT_Y 7
SUPERSCRIPT_SIZE 10
SUBSCRIPT_X 0
SUBSCRIPT_Y 2
SUBSCRIPT_SIZE 10
AVG_LOWERCASE_WIDTH 71
AVG_UPPERCASE_WIDTH 85
ENDPROPERTIES
CHARS 356
STARTCHAR space
ENCODING 32
SWIDTH 375 0
DWIDTH 6 0
BBX 1 1 0 0
BITMAP
00
ENDCHAR
STARTCHAR exclam
ENCODING 33
SWIDTH 149 0
DWIDTH 2 0
BBX 3 14 0 0
BITMAP
1100
6600
6600
6600
6600
6700
6700
6700
5800
4600
0000
0000
4800
9D10
ENDCHAR
STARTCHAR quotedbl
ENCODING 34
SWIDTH 234 0
DWIDTH 4 0
BBX 4 6 0 7
BITMAP
2060
B0B1
A3B3
77A4
2985
0010
ENDCHAR
STARTCHAR numbersign
ENCODING 35
SWIDTH 768 0
DWIDTH 12 0
BBX 12 8 0 0
BITMAP
000025070000
0000380B0000
00016D9EDCC1
4ADBAE5C4010
65101E6CDDEA
04ACCE8B8111
01100B277000
000002056000
ENDCHAR
STARTCHAR dollar
ENCODING 36
SWIDTH 581 0
DWIDTH 9 0
BBX 9 15 0 0
BITMAP
0000152000
000066A100
00007AC100
000AFAE800
0087B2A000
0058C19000
0006F59000
0000ECE200
0000DA6B20
0001AB02C0
A6037C00D0
2B787D01C0
005EED1960
0008DFB600
00056A0000
ENDCHAR
STARTCHAR percent
ENCODING 37
SWIDTH 636 0
DWIDTH 10 0
BBX 10 10 0 0
BITMAP
0000000150
0892000A10
885C108300
C10A256000
799A1A0000
0340A419A1
0005B09669
000D32A03A
006A0482B4
009101AC50
ENDCHAR
STARTCHAR ampersand
ENCODING 38
SWIDTH 457 0
DWIDTH 7 0
BBX 7 11 0 0
BITMAP
008D0000
00AF3000
00AF2000
00BD0000
00C51770
02F33C50
09896600
2B0AF200
9507D000
C24B7500
7DC10600
ENDCHAR
STARTCHAR quotesingle
ENCODING 39
SWIDTH 102 0
DWIDTH 2 0
BBX 2 5 0 7
BITMAP
50
A3
95
75
01
ENDCHAR
STARTCHAR parenleft
ENCODING 40
SWIDTH 421 0
DWIDTH 7 0
BBX 7 11 0 -1
BITMAP
00001400
0005CA50
00690000
03A00000
0C200000
59000000
95000000
93000000
68000000
0CA51000
01793000
ENDCHAR
STARTCHAR parenright
ENCODING 41
SWIDTH 290 0
DWIDTH 5 0
BBX 5 11 0 -1
BITMAP
161000
18D100
009900
001E10
000A50
000940
000C10
006900
04E200
3E6000
A60000
ENDCHAR
STARTCHAR asterisk
ENCODING 42
SWIDTH 412 0
DWIDTH 7 0
BBX 7 7 0 3
BITMAP
01001910
2C99C500
04FFE600
6CEED000
0C39F400
0506A500
00011000
ENDCHAR
STARTCHAR plus
ENCODING 43
SWIDTH 459 0
DWIDTH 7 0
BBX 7 7 0 0
BITMAP
00430000
00590000
002D2000
6ADFFFC0
330D3000
000B3000
00092000
ENDCHAR
STARTCHAR comma
ENCODING 44
SWIDTH 130 0
DWIDTH 2 0
BBX 2 6 0 -3
BITMAP
21
97
68
86
B3
B0
ENDCHAR
STARTCHAR hyphen
ENCODING 45
SWIDTH 375 0
DWIDTH 6 0
BBX 6 3 0 3
BITMAP
001110
6EECD4
110000
ENDCHAR
STARTCHAR period
ENCODING 46
SWIDTH 204 0
DWIDTH 3 0
BBX 3 3 0 0
BITMAP
0C60
4FC0
1D60
ENDCHAR
STARTCHAR slash
ENCODING 47
SWIDTH 309 0
DWIDTH 5 0
BBX 5 12 0 0
BITMAP
000180
000480
000840
000D00
004A00
009500
01E100
05A000
0B5000
2D0000
970000
A10000
ENDCHAR
STARTCHAR zero
ENCODING 48
SWIDTH 430 0
DWIDTH 7 0
BBX 7 7 0 0
BITMAP
01AEA100
0B428A00
75000B30
A1000760
84000950
1B204D00
02BED300
ENDCHAR
STARTCHAR one
ENCODING 49
SWIDTH 318 0
DWIDTH 5 0
BBX 5 10 0 0
BITMAP
000040
0002B0
000690
003E70
02DF60
2D3E40
940F10
001E00
002C00
002800
ENDCHAR
STARTCHAR two
ENCODING 50
SWIDTH 497 0
DWIDTH 8 0
BBX 8 9 0 0
BITMAP
00029800
00094960
000402C0
000000E0
000002D0
00000690
35101B10
BFFBD910
29A98BE5
ENDCHAR
STARTCHAR three
ENCODING 51
SWIDTH 430 0
DWIDTH 7 0
BBX 7 9 0 0
BITMAP
16662000
4A66B200
00009500
047C8000
07BF9100
00017C00
63000950
4D500960
02ADEA10
ENDCHAR
STARTCHAR four
ENCODING 52
SWIDTH 412 0
DWIDTH 7 0
BBX 7 10 0 0
BITMAP
07000000
3C000000
86000100
A2000940
A1002F20
7601CE00
2ECEBD00
02630E00
00000F10
00000C10
ENDCHAR
STARTCHAR five
ENCODING 53
SWIDTH 571 0
DWIDTH 9 0
BBX 9 11 0 0
BITMAP
0003788720
000D866750
001C000000
0086000000
00FD930000
00136B9000
0000008600
1000002B00
9000003C00
784114D600
07CEFC6000
ENDCHAR
STARTCHAR six
ENCODING 54
SWIDTH 440 0
DWIDTH 7 0
BBX 7 10 0 0
BITMAP
00005830
002B9660
01C30000
0A400000
2C564000
8E869C00
A3000960
94000690
4D314D40
07EEC500
ENDCHAR
STARTCHAR seven
ENCODING 55
SWIDTH 412 0
DWIDTH 7 0
BBX 7 9 0 0
BITMAP
47665000
1556C000
0001B000
0002B000
069BD810
024B8620
000B3000
000D0000
001B0000
ENDCHAR
STARTCHAR eight
ENCODING 56
SWIDTH 375 0
DWIDTH 6 0
BBX 6 10 0 0
BITMAP
002000
1ADE40
970690
940A30
1BC700
07CA00
2C03A0
4A0076
0C3048
02ABC2
ENDCHAR
STARTCHAR nine
ENCODING 57
SWIDTH 300 0
DWIDTH 5 0
BBX 5 10 0 0
BITMAP
1ABA00
940770
C10A90
B60D70
3CEF50
002C40
000A30
000A20
000A20
000930
ENDCHAR
STARTCHAR colon
ENCODING 58
SWIDTH 84 0
DWIDTH 1 0
BBX 2 5 0 1
BITMAP
30
72
00
00
60
ENDCHAR
STARTCHAR semicolon
ENCODING 59
SWIDTH 128 0
DWIDTH 2 0
BBX 3 10 -1 -3
BITMAP
0200
0A40
0100
0000
0010
0290
0490
0970
1F20
3900
ENDCHAR
STARTCHAR less
ENCODING 60
SWIDTH 487 0
DWIDTH 8 0
BBX 8 7 0 0
BITMAP
00000062
00003C70
0007C200
02B70000
3D300000
AFC97400
01357BA0
ENDCHAR
STARTCHAR equal
ENCODING 61
SWIDTH 524 0
DWIDTH 8 0
BBX 8 5 0 2
BITMAP
01232220
6CCCBAAC
00000000
00000100
7DDEEED3
ENDCHAR
STARTCHAR greater
ENCODING 62
SWIDTH 403 0
DWIDTH 6 0
BBX 7 8 0 0
BITMAP
32000000
4D710000
018DB810
00003F40
0001B900
003C6000
07C30000
69100000
ENDCHAR
STARTCHAR question
ENCODING 63
SWIDTH 272 0
DWIDTH 4 0
BBX 4 14 0 0
BITMAP
6C91
626A
000D
000E
005B
00D5
06C0
0B40
08EA
0001
0000
0000
0001
001C
ENDCHAR
STARTCHAR at
ENCODING 64
SWIDTH 815 0
DWIDTH 13 0
BBX 13 16 0 -1
BITMAP
00000331000000
0007C99D920000
00A700004C6000
08500000009800
29000000000C40
720008BBB30580
900094002D0290
90038000C20480
82084001F30850
48074004F62D10
0C12B46D5CC400
05A03982000000
00990000000000
0008B300015700
00003BDBCDA400
00000001000000
ENDCHAR
STARTCHAR A
ENCODING 65
SWIDTH 562 0
DWIDTH 9 0
BBX 9 13 0 0
BITMAP
0001200000
008AAC1000
067004B000
0A00008500
0A00002A00
1800000C00
3700000A30
4A54332B50
7C65689C70
2A00000680
2C00000580
0E00000780
0A10000950
ENDCHAR
STARTCHAR B
ENCODING 66
SWIDTH 741 0
DWIDTH 12 0
BBX 12 12 0 0
BITMAP
000010000000
28BEFEA30000
532E202C2000
000B30085000
0007616B0000
00049BF91000
0001D05AD400
0000E1002B60
0000C20000B3
0000A3000088
0003F70001C6
00006ADDED70
ENDCHAR
STARTCHAR C
ENCODING 67
SWIDTH 515 0
DWIDTH 8 0
BBX 8 11 0 0
BITMAP
00002500
001ADD40
01C60810
09400000
28000000
82000000
A1000000
A2000000
67000000
1D413687
04DFC951
ENDCHAR
STARTCHAR D
ENCODING 68
SWIDTH 741 0
DWIDTH 12 0
BBX 12 11 0 -1
BITMAP
5CDDDC720000
41005B6C8000
00002B008B10
00000C0007A0
00000C1000D2
00000B300085
00000A500095
0000095003E1
000044205E70
0000BECEC500
000001210000
ENDCHAR
STARTCHAR E
ENCODING 69
SWIDTH 524 0
DWIDTH 8 0
BBX 8 10 0 0
BITMAP
5DDCCCB2
77110011
77000000
77001350
9DBCC940
85000000
93000000
A3000000
94012452
2CFFFEB4
ENDCHAR
STARTCHAR F
ENCODING 70
SWIDTH 514 0
DWIDTH 8 0
BBX 11 10 -1 0
BITMAP
025788874100
499FA778BE50
000C10000120
000B10000000
000B52210000
02AFFFEB1000
000690000000
0003A0000000
0003D0000000
0000B0000000
ENDCHAR
STARTCHAR G
ENCODING 71
SWIDTH 571 0
DWIDTH 9 0
BBX 9 10 0 -1
BITMAP
0000014400
0003AB9A30
007A200000
0780000000
2B00A78920
7600344960
6600000860
1C40026E60
03BDC85A60
00000005B0
ENDCHAR
STARTCHAR H
ENCODING 72
SWIDTH 524 0
DWIDTH 8 0
BBX 8 11 0 0
BITMAP
21000035
64000065
66000075
48000075
390002B6
2B03ACB6
2ECB4067
6F400058
0C200049
0A20003B
0710000C
ENDCHAR
STARTCHAR I
ENCODING 73
SWIDTH 167 0
DWIDTH 3 0
BBX 3 9 0 0
BITMAP
8000
9300
5700
1B00
0D00
0C10
0B30
0950
0660
ENDCHAR
STARTCHAR J
ENCODING 74
SWIDTH 439 0
DWIDTH 7 0
BBX 7 12 0 0
BITMAP
00000100
00000B00
00000C10
00000A40
00000860
00000680
410004A0
940002B0
2A0002B0
048003A0
006A1670
0004CC10
ENDCHAR
STARTCHAR K
ENCODING 75
SWIDTH 468 0
DWIDTH 8 0
BBX 7 10 0 0
BITMAP
20001200
A104C200
933D2000
75C30000
5E500000
4E200000
4DD20000
394D5000
2B01B910
0B0006D0
ENDCHAR
STARTCHAR L
ENCODING 76
SWIDTH 346 0
DWIDTH 6 0
BBX 6 9 0 0
BITMAP
050000
3A0000
690000
770000
950000
A30000
A30000
882100
1AEFE2
ENDCHAR
STARTCHAR M
ENCODING 77
SWIDTH 534 0
DWIDTH 9 0
BBX 9 10 0 0
BITMAP
7400005500
6E1000C700
0F9005F600
0DADCEE500
0D04307600
1D00006800
1D00004A00
2D00003D00
2D00001F00
0600000E10
ENDCHAR
STARTCHAR N
ENCODING 78
SWIDTH 609 0
DWIDTH 10 0
BBX 10 9 0 0
BITMAP
3400000000
5900001B00
3E00000D60
4F400005C0
5FA00000D1
66B40000A4
762C2000B3
8705D637C0
76004BC910
ENDCHAR
STARTCHAR O
ENCODING 79
SWIDTH 609 0
DWIDTH 10 0
BBX 10 8 0 0
BITMAP
028A620000
1C547DA100
8400007D20
A1000006B0
93000000C2
4B000000A4
0AC30028B0
006DDCB600
ENDCHAR
STARTCHAR P
ENCODING 80
SWIDTH 627 0
DWIDTH 10 0
BBX 10 10 0 0
BITMAP
0588751000
984569DA20
50005005D3
000190004A
0001A0004B
0001D226D3
0000EFD810
0000D20000
0000A30000
0000630000
ENDCHAR
STARTCHAR Q
ENCODING 81
SWIDTH 642 0
DWIDTH 10 0
BBX 11 11 0 -2
BITMAP
003873000000
05B67D900000
2B0005CC1000
76000545B000
940000008700
750016001C00
2C000C403B00
07C417E9D200
005BEEDF4000
00000002B400
000000002A30
ENDCHAR
STARTCHAR R
ENCODING 82
SWIDTH 579 0
DWIDTH 9 0
BBX 10 11 -1 -1
BITMAP
06CDEEC700
1C200029C1
0307000095
001C0017E3
000EADE930
000CA20000
000AD30000
00076C3000
000371B500
0000601AA1
0000000057
ENDCHAR
STARTCHAR S
ENCODING 83
SWIDTH 627 0
DWIDTH 10 0
BBX 10 11 0 -1
BITMAP
0004897200
0098325D60
00C0000020
0089000000
0006C60000
000018D600
52000019B1
8600000088
1B61000097
006BCCCD80
0000011000
ENDCHAR
STARTCHAR T
ENCODING 84
SWIDTH 581 0
DWIDTH 9 0
BBX 11 11 0 0
BITMAP
333221000000
68BCDFDDC930
00000C002540
00000C000000
00000C000000
00000C100000
00000B300000
000009500000
000007800000
000005C00000
000002E20000
ENDCHAR
STARTCHAR U
ENCODING 85
SWIDTH 571 0
DWIDTH 9 0
BBX 9 9 0 0
BITMAP
1800003100
7500008600
8300008800
8300006900
6500002B00
4800000E10
0D00006F60
07A239B9B0
009FD50060
ENDCHAR
STARTCHAR V
ENCODING 86
SWIDTH 421 0
DWIDTH 7 0
BBX 7 9 0 0
BITMAP
20000110
97000840
4D000C40
0D500F20
06C03D00
01E36A00
008A9500
001ED000
00076000
ENDCHAR
STARTCHAR W
ENCODING 87
SWIDTH 703 0
DWIDTH 11 0
BBX 11 8 0 0
BITMAP
900000001700
D10000000F20
C20000000A70
B300730005B0
9500780001E0
6900BE1001C0
1D49B7B22B60
04C8005ED600
ENDCHAR
STARTCHAR X
ENCODING 88
SWIDTH 534 0
DWIDTH 9 0
BBX 9 10 0 -1
BITMAP
0300000000
0850003A30
01C104B200
00597A1000
000EB00000
008DB00000
04B0A60000
1D201C3000
770002A000
8100000000
ENDCHAR
STARTCHAR Y
ENCODING 89
SWIDTH 403 0
DWIDTH 6 0
BBX 7 12 0 -1
BITMAP
20000000
A2000610
5B000C10
0A903D00
008DD800
0002F200
0003B000
00076000
000B2000
000C0000
000D1000
00020000
ENDCHAR
STARTCHAR Z
ENCODING 90
SWIDTH 571 0
DWIDTH 9 0
BBX 9 10 0 0
BITMAP
5CCB920000
42004C1000
0000066000
0000075000
00015E8400
02CCFE8810
0000C20000
0009500000
003C015880
002EEEC830
ENDCHAR
STARTCHAR bracketleft
ENCODING 91
SWIDTH 477 0
DWIDTH 8 0
BBX 9 14 0 -2
BITMAP
0000013100
0049CB8200
6DA5100000
8700000000
4A00000000
0E00000000
0B20000000
0840000000
0560000000
0380000000
01A0000000
00C0000000
00EBBCDD70
0053110100
ENDCHAR
STARTCHAR backslash
ENCODING 92
SWIDTH 430 0
DWIDTH 7 0
BBX 7 9 0 0
BITMAP
60000000
79000000
0C800000
02E50000
004E3000
0007D100
0000AA00
00001D50
00000780
ENDCHAR
STARTCHAR bracketright
ENCODING 93
SWIDTH 430 0
DWIDTH 7 0
BBX 7 16 0 -2
BITMAP
24200000
5ADEB200
00018A00
00001E00
00000D00
00000A10
00000920
00000830
00000740
00000750
00000650
00000660
00000670
00000780
0AAAAD90
06888730
ENDCHAR
STARTCHAR asciicircum
ENCODING 94
SWIDTH 375 0
DWIDTH 6 0
BBX 6 4 0 8
BITMAP
004500
00BF30
09A8E0
160061
ENDCHAR
STARTCHAR underscore
ENCODING 95
SWIDTH 656 0
DWIDTH 11 0
BBX 11 2 0 0
BITMAP
497544333200
02579BCDEF20
ENDCHAR
STARTCHAR grave
ENCODING 96
SWIDTH 172 0
DWIDTH 3 0
BBX 3 2 0 7
BITMAP
7600
0A50
ENDCHAR
STARTCHAR a
ENCODING 97
SWIDTH 505 0
DWIDTH 8 0
BBX 8 8 0 0
BITMAP
007EA100
00205D10
000006A0
05CCBAF2
6B3007F6
A2000068
6B412456
05BEFC82
ENDCHAR
STARTCHAR b
ENCODING 98
SWIDTH 497 0
DWIDTH 8 0
BBX 8 11 0 0
BITMAP
10000000
C2000000
B4000000
85000000
67000000
3B553000
1FA8BC40
0E0003D3
0C000059
09A101A8
01AEED81
ENDCHAR
STARTCHAR c
ENCODING 99
SWIDTH 449 0
DWIDTH 7 0
BBX 7 7 0 0
BITMAP
02BCC400
1C201900
86000100
A3000000
96000000
2D500000
03BDDC70
ENDCHAR
STARTCHAR d
ENCODING 100
SWIDTH 524 0
DWIDTH 8 0
BBX 8 12 0 0
BITMAP
00000920
00000A90
000007E0
000003F2
000000F5
06EE81D7
3F737DE8
880002E9
A50000EA
870009EC
3D33AB2D
06ED7003
ENDCHAR
STARTCHAR e
ENCODING 101
SWIDTH 515 0
DWIDTH 8 0
BBX 8 9 0 0
BITMAP
00141000
04C9C500
1C101C00
75002C00
A537D400
97861000
59000000
0A930011
006CFEA2
ENDCHAR
STARTCHAR f
ENCODING 102
SWIDTH 376 0
DWIDTH 6 0
BBX 9 12 -1 0
BITMAP
0000130000
0004DAD400
000C102D20
0047000010
0075000000
0086000000
0089200000
1CBFDE6000
000D300000
0006B00000
0000D50000
00004B0000
ENDCHAR
STARTCHAR g
ENCODING 103
SWIDTH 366 0
DWIDTH 6 0
BBX 9 15 -3 -8
BITMAP
0000038300
00006A5C00
0002B00A40
0008500970
000A400C90
0005C69FA0
00005A68A0
00000004B0
00000002B0
00000001C0
04000001D0
1B000002B0
0A81000680
009E955E30
00027BB600
ENDCHAR
STARTCHAR h
ENCODING 104
SWIDTH 427 0
DWIDTH 7 0
BBX 8 12 -1 0
BITMAP
02000000
2A000000
0E100000
0A400000
08723000
05EFFC10
03C10780
02A000B0
01C000B2
00E000B3
00E100C3
00B100C1
ENDCHAR
STARTCHAR i
ENCODING 105
SWIDTH 174 0
DWIDTH 3 0
BBX 3 10 0 0
BITMAP
6100
4100
0000
0B00
0C00
0E00
0E20
0C40
0A60
0660
ENDCHAR
STARTCHAR j
ENCODING 106
SWIDTH 200 0
DWIDTH 3 0
BBX 6 18 -2 -8
BITMAP
002100
005600
000000
000200
000A20
000870
0006A0
0003D0
0001F1
0000D3
0000A5
100087
A20068
790068
1D3058
04D486
003DF3
000020
ENDCHAR
STARTCHAR k
ENCODING 107
SWIDTH 403 0
DWIDTH 6 0
BBX 7 10 0 0
BITMAP
60000000
B0000000
B1001000
8504B000
681A1000
3DB10000
2F500000
1F800000
1EAB5200
2A04BD30
ENDCHAR
STARTCHAR l
ENCODING 108
SWIDTH 120 0
DWIDTH 2 0
BBX 2 9 0 0
BITMAP
83
86
86
97
97
97
87
87
65
ENDCHAR
STARTCHAR m
ENCODING 109
SWIDTH 750 0
DWIDTH 12 0
BBX 12 7 0 0
BITMAP
10430006B800
8DCAB1AB5990
8C007EA000D2
78001E300086
68000B500068
690005900078
260000000074
ENDCHAR
STARTCHAR n
ENCODING 110
SWIDTH 459 0
DWIDTH 7 0
BBX 8 7 0 0
BITMAP
218DD300
8F503D10
8A000870
780003C0
5A0000F0
2E0000E1
0A1000C0
ENDCHAR
STARTCHAR o
ENCODING 111
SWIDTH 487 0
DWIDTH 8 0
BBX 8 7 0 0
BITMAP
018DEA10
1B601AB0
750000B2
A1000095
840001E3
3C303D90
04CED700
ENDCHAR
STARTCHAR p
ENCODING 112
SWIDTH 520 0
DWIDTH 8 0
BBX 8 12 0 -6
BITMAP
00378610
0AD868D2
6C00004C
AB10000E
AC9B67CA
7E058860
4F100000
1F300000
0D600000
09800000
04B00000
00700000
ENDCHAR
STARTCHAR q
ENCODING 113
SWIDTH 412 0
DWIDTH 7 0
BBX 6 13 0 -5
BITMAP
019CC5
0B402D
58001E
92004D
A1005B
85006A
2D76C9
029AC8
000059
00003A
00003B
00002C
00000C
ENDCHAR
STARTCHAR r
ENCODING 114
SWIDTH 346 0
DWIDTH 6 0
BBX 6 8 0 0
BITMAP
001300
6ABCE3
A70011
940000
670000
3C0000
0D1000
073000
ENDCHAR
STARTCHAR s
ENCODING 115
SWIDTH 514 0
DWIDTH 8 0
BBX 8 8 0 0
BITMAP
00331000
2CA9C400
58003800
1C621100
0169BC91
0000008A
7920008A
06CDDEB2
ENDCHAR
STARTCHAR t
ENCODING 116
SWIDTH 328 0
DWIDTH 5 0
BBX 6 10 0 0
BITMAP
00D000
00F000
00E100
00F100
9EFEC1
00E200
00E200
00E300
00C300
007300
ENDCHAR
STARTCHAR u
ENCODING 117
SWIDTH 501 0
DWIDTH 8 0
BBX 8 8 0 0
BITMAP
83000010
B1000590
A20005C0
850005C0
4B000AE0
0B607BC3
02BE9059
00000015
ENDCHAR
STARTCHAR v
ENCODING 118
SWIDTH 389 0
DWIDTH 6 0
BBX 6 6 0 0
BITMAP
A30005
5B0059
0D20D2
0693C0
00CC60
003C00
ENDCHAR
STARTCHAR w
ENCODING 119
SWIDTH 656 0
DWIDTH 11 0
BBX 10 7 0 0
BITMAP
2300000000
9400000061
C1001B0049
B1002D000D
85004F100E
2C24DCA38C
03DD607BB3
ENDCHAR
STARTCHAR x
ENCODING 120
SWIDTH 448 0
DWIDTH 7 0
BBX 7 8 0 -1
BITMAP
10000010
B50008B0
2D51B800
02DE4000
00CE5000
0833E500
18003E30
00000370
ENDCHAR
STARTCHAR y
ENCODING 121
SWIDTH 487 0
DWIDTH 8 0
BBX 8 15 0 -8
BITMAP
70000070
B10000B0
930000C2
680000B4
1C1001D5
05B45CD7
00398137
00000038
00000048
00000056
00000075
230000A3
1D3000D0
04E84A70
0018C800
ENDCHAR
STARTCHAR z
ENCODING 122
SWIDTH 459 0
DWIDTH 7 0
BBX 7 9 0 0
BITMAP
01341000
7DAAC100
31008500
0000A300
1457F710
39BE5300
01D40000
08D12690
05DFDA30
ENDCHAR
STARTCHAR braceleft
ENCODING 123
SWIDTH 393 0
DWIDTH 6 0
BBX 7 17 0 -2
BITMAP
00024100
02AB9B00
2D400100
97000000
A2000000
76000000
1C820000
019F8000
02CCD100
4A20A500
0003D200
005C2000
06A10000
0C000000
0C100000
07C55720
00687400
ENDCHAR
STARTCHAR bar
ENCODING 124
SWIDTH 149 0
DWIDTH 2 0
BBX 2 11 0 0
BITMAP
20
90
74
47
1A
0C
0D
0E
0D
0D
0C
ENDCHAR
STARTCHAR braceright
ENCODING 125
SWIDTH 440 0
DWIDTH 7 0
BBX 7 20 0 -4
BITMAP
01000000
BDBDB100
77007A00
00003C00
0001C600
001C7000
00C40000
03C00000
00EFE900
00D20000
00C50000
001B4000
0001C100
00004900
00000B20
00000570
00000390
60000860
AA328C10
06996000
ENDCHAR
STARTCHAR asciitilde
ENCODING 126
SWIDTH 402 0
DWIDTH 6 0
BBX 6 3 0 6
BITMAP
196017
945CC3
400000
ENDCHAR
STARTCHAR nonbreakingspace
ENCODING 160
SWIDTH 375 0
DWIDTH 6 0
BBX 1 1 0 0
BITMAP
00
ENDCHAR
STARTCHAR exclamdown
ENCODING 161
SWIDTH 149 0
DWIDTH 2 0
BBX 3 11 0 0
BITMAP
8D10
1400
0000
2500
4800
5700
5700
5700
5700
5600
3400
ENDCHAR
STARTCHAR cent
ENCODING 162
SWIDTH 449 0
DWIDTH 7 0
BBX 7 10 0 -1
BITMAP
00040000
000B0000
03BED400
1C295800
86095100
A3086000
96086000
4E586000
06DFEB70
00073000
ENDCHAR
STARTCHAR sterling
ENCODING 163
SWIDTH 758 0
DWIDTH 12 0
BBX 12 12 0 0
BITMAP
000000017830
0000001D86C5
000000930029
000001A00001
000007933100
0048CFFBB700
00542C300000
00000A000000
000047000000
0110C2000000
BFFFFEEB3000
6EE822440000
ENDCHAR
STARTCHAR currency
ENCODING 164
SWIDTH 618 0
DWIDTH 10 0
BBX 9 9 0 0
BITMAP
3200000010
2D55BEC7B0
03FB426E20
03A0000370
0660000290
0390000960
00E7229A00
0795998B00
0510000520
ENDCHAR
STARTCHAR yen
ENCODING 165
SWIDTH 389 0
DWIDTH 6 0
BBX 7 13 0 -1
BITMAP
47000220
0D100D20
08407900
0191E200
009A9000
003F2000
355D3000
257D8400
279D6100
269C6100
00790000
00880000
00100000
ENDCHAR
STARTCHAR brokenbar
ENCODING 166
SWIDTH 117 0
DWIDTH 2 0
BBX 2 11 0 -1
BITMAP
10
84
85
85
73
63
A5
95
85
65
01
ENDCHAR
STARTCHAR section
ENCODING 167
SWIDTH 514 0
DWIDTH 8 0
BBX 9 11 0 0
BITMAP
0168720000
0C867D8000
1D00019200
07C7531000
2CB988C600
6A00001F10
2D63227D00
028BBDF300
0000008A00
2C40008A00
03ADDEB200
ENDCHAR
STARTCHAR dieresis
ENCODING 168
SWIDTH 397 0
DWIDTH 6 0
BBX 5 3 1 6
BITMAP
320400
C95F10
100100
ENDCHAR
STARTCHAR copyright
ENCODING 169
SWIDTH 667 0
DWIDTH 11 0
BBX 11 9 0 0
BITMAP
003BDD930000
03B2047E7000
0B13BAC2C500
480B10711C00
653900100840
674A00000660
2D2C64550950
06D5689ABA00
004CDCC94000
ENDCHAR
STARTCHAR ordfeminine
ENCODING 170
SWIDTH 266 0
DWIDTH 4 0
BBX 4 5 0 4
BITMAP
0310
0372
2779
6008
4896
ENDCHAR
STARTCHAR guillemotleft
ENCODING 171
SWIDTH 755 0
DWIDTH 12 0
BBX 11 8 0 0
BITMAP
000000000170
000000625C50
00003C8AA100
0007C6C50000
02B76C100000
3D31CFC97300
AFC975457B70
01357BA00000
ENDCHAR
STARTCHAR logicalnot
ENCODING 172
SWIDTH 369 0
DWIDTH 6 0
BBX 6 3 0 4
BITMAP
266663
376697
000056
ENDCHAR
STARTCHAR hyphen_
ENCODING 173
SWIDTH 375 0
DWIDTH 6 0
BBX 6 3 0 3
BITMAP
001110
6EECD4
110000
ENDCHAR
STARTCHAR registered
ENCODING 174
SWIDTH 708 0
DWIDTH 11 0
BBX 11 10 0 0
BITMAP
000122000000
006CADD70000
0582334BB000
1C8A77988900
5824802F1C10
6504EAA40650
4902D8000570
0D40B4A21B40
03E9526DD600
0018BB851000
ENDCHAR
STARTCHAR macron
ENCODING 175
SWIDTH 287 0
DWIDTH 5 0
BBX 5 2 0 7
BITMAP
189940
475540
ENDCHAR
STARTCHAR degree
ENCODING 176
SWIDTH 254 0
DWIDTH 4 0
BBX 4 5 0 4
BITMAP
0770
6263
5006
6044
4990
ENDCHAR
STARTCHAR plusminus
ENCODING 177
SWIDTH 459 0
DWIDTH 7 0
BBX 8 8 0 0
BITMAP
00340000
003A0000
001E1000
48CFFEC1
442C6110
00095000
047CCB80
17643330
ENDCHAR
STARTCHAR twosuperior
ENCODING 178
SWIDTH 296 0
DWIDTH 5 0
BBX 4 6 0 3
BITMAP
0020
0276
0007
0008
5344
8CB9
ENDCHAR
STARTCHAR threesuperior
ENCODING 179
SWIDTH 204 0
DWIDTH 3 0
BBX 4 6 0 4
BITMAP
2300
6560
3840
2870
5062
5991
ENDCHAR
STARTCHAR acute
ENCODING 180
SWIDTH 180 0
DWIDTH 3 0
BBX 3 3 0 6
BITMAP
0350
6B10
7100
ENDCHAR
STARTCHAR mu
ENCODING 181
SWIDTH 501 0
DWIDTH 8 0
BBX 8 9 0 -1
BITMAP
41000000
B2000360
B10005B0
B40005C0
B80007D0
BE202EF1
B8D9D6A6
B1373049
B1000000
ENDCHAR
STARTCHAR paragraph
ENCODING 182
SWIDTH 413 0
DWIDTH 7 0
BBX 7 10 0 -1
BITMAP
00122000
1CFFF900
7FFFBC00
AFFF6D00
5CBE5E00
00085E10
00084E10
00085E00
00075C00
00011300
ENDCHAR
STARTCHAR periodcentered
ENCODING 183
SWIDTH 212 0
DWIDTH 3 0
BBX 3 3 0 2
BITMAP
0830
2F90
0200
ENDCHAR
STARTCHAR cedilla
ENCODING 184
SWIDTH 445 0
DWIDTH 7 0
BBX 5 6 2 -5
BITMAP
110000
560000
1B6200
014A50
460580
08B920
ENDCHAR
STARTCHAR onesuperior
ENCODING 185
SWIDTH 197 0
DWIDTH 3 0
BBX 4 7 -1 3
BITMAP
0001
0009
004B
04C9
1857
0064
0061
ENDCHAR
STARTCHAR ordmasculine
ENCODING 186
SWIDTH 254 0
DWIDTH 4 0
BBX 4 5 0 4
BITMAP
0770
6263
5006
6044
4990
ENDCHAR
STARTCHAR guillemotright
ENCODING 187
SWIDTH 659 0
DWIDTH 11 0
BBX 10 8 0 0
BITMAP
3200A30000
4D714DA410
018DB86ADA
00003F409A
0001B919B1
003C63C700
07C37C3000
6910710000
ENDCHAR
STARTCHAR onequarter
ENCODING 188
SWIDTH 626 0
DWIDTH 10 0
BBX 10 13 0 0
BITMAP
0000010000
0000260000
0053440000
00B2720000
09E0A00000
73B0A00000
00A4700000
0078390000
000B190021
001A2700B1
00560A5AD0
00A20262A0
00800000A1
ENDCHAR
STARTCHAR onehalf
ENCODING 189
SWIDTH 566 0
DWIDTH 9 0
BBX 9 13 0 -1
BITMAP
0000010000
0013080000
0046270000
00A4540000
08F2910000
67C1B04200
50C3927900
00B7501720
008B100720
001B000900
0058B76500
00A29BAB40
0080000000
ENDCHAR
STARTCHAR threequarters
ENCODING 190
SWIDTH 566 0
DWIDTH 9 0
BBX 9 13 0 -1
BITMAP
0000010000
0000080000
3630270000
3170540000
2960910000
0591A20000
6027990000
2998680050
0009270480
000B088D60
0029014270
0074000170
0080000000
ENDCHAR
STARTCHAR questiondown
ENCODING 191
SWIDTH 272 0
DWIDTH 4 0
BBX 5 12 0 0
BITMAP
580000
000000
000000
000000
4B9100
01C500
04E100
1D5000
6B0000
860000
5A0020
07CC40
ENDCHAR
STARTCHAR Agrave
ENCODING 192
SWIDTH 562 0
DWIDTH 9 0
BBX 9 15 0 0
BITMAP
0006700000
0000A60000
0001200000
008AAC1000
067004B000
0A00008500
0A00002A00
1800000C00
3700000A30
4A54332B50
7C65689C70
2A00000680
2C00000580
0E00000780
0A10000950
ENDCHAR
STARTCHAR Aacute
ENCODING 193
SWIDTH 562 0
DWIDTH 9 0
BBX 9 15 0 0
BITMAP
0003600000
004C200000
0062200000
008AAC1000
067004B000
0A00008500
0A00002A00
1800000C00
3700000A30
4A54332B50
7C65689C70
2A00000680
2C00000580
0E00000780
0A10000950
ENDCHAR
STARTCHAR Acircumflex
ENCODING 194
SWIDTH 562 0
DWIDTH 9 0
BBX 9 16 0 0
BITMAP
0004500000
000BE30000
00998D0000
0161261000
008AAC1000
067004B000
0A00008500
0A00002A00
1800000C00
3700000A30
4A54332B50
7C65689C70
2A00000680
2C00000580
0E00000780
0A10000950
ENDCHAR
STARTCHAR Atilde
ENCODING 195
SWIDTH 562 0
DWIDTH 9 0
BBX 9 15 0 0
BITMAP
0295017000
0A25CC2000
0401200000
008AAC1000
067004B000
0A00008500
0A00002A00
1800000C00
3700000A30
4A54332B50
7C65689C70
2A00000680
2C00000580
0E00000780
0A10000950
ENDCHAR
STARTCHAR Adieresis
ENCODING 196
SWIDTH 562 0
DWIDTH 9 0
BBX 9 15 0 0
BITMAP
0032050000
00BA3F3000
0011210000
008AAC1000
067004B000
0A00008500
0A00002A00
1800000C00
3700000A30
4A54332B50
7C65689C70
2A00000680
2C00000580
0E00000780
0A10000950
ENDCHAR
STARTCHAR Aring
ENCODING 197
SWIDTH 562 0
DWIDTH 9 0
BBX 9 15 0 0
BITMAP
0006810000
0053360000
0039A30000
008AAC2000
067004B000
0A00008500
0A00002A00
1800000C00
3700000A30
4A54332B50
7C65689C70
2A00000680
2C00000580
0E00000780
0A10000950
ENDCHAR
STARTCHAR AE
ENCODING 198
SWIDTH 960 0
DWIDTH 15 0
BBX 15 13 0 0
BITMAP
0001200000000000
008AAC1000000000
067004B000000000
0A000086EEDDCC60
0A00002CC1000010
1800000DC0000000
3700000AC0013520
4A54332BFBBBA600
7C65689CA0000000
2A00000680000000
2C00000580000000
0E000007A1124550
0A100009BEFEDB70
ENDCHAR
STARTCHAR Ccedilla
ENCODING 199
SWIDTH 515 0
DWIDTH 8 0
BBX 8 16 0 -5
BITMAP
00002500
001ADD40
01C60810
09400000
28000000
82000000
A1000000
A2000000
67000000
1D413687
04EFC951
00A00000
005A5100
00025C10
00730A30
002BA700
ENDCHAR
STARTCHAR Egrave
ENCODING 200
SWIDTH 524 0
DWIDTH 8 0
BBX 8 13 0 0
BITMAP
000A3000
0003C100
00000000
5DDCCCB2
77110011
77000000
77001350
9DBCC940
85000000
93000000
A3000000
94012452
2CFFFEB4
ENDCHAR
STARTCHAR Eacute
ENCODING 201
SWIDTH 524 0
DWIDTH 8 0
BBX 8 13 0 0
BITMAP
00018000
001C5000
00440000
5DDCCCB2
77110011
77000000
77001350
9DBCC940
85000000
93000000
A3000000
94012452
2CFFFEB4
ENDCHAR
STARTCHAR Ecircumflex
ENCODING 202
SWIDTH 524 0
DWIDTH 8 0
BBX 8 14 0 0
BITMAP
00018000
0007F700
005C6F30
00610430
5DDCCCB2
77110011
77000000
77001350
9DBCC940
85000000
93000000
A3000000
94012452
2CFFFEB4
ENDCHAR
STARTCHAR Edieresis
ENCODING 203
SWIDTH 524 0
DWIDTH 8 0
BBX 8 13 0 0
BITMAP
00320400
00C95F10
00100100
5DDCCCB2
77110011
77000000
77001350
9DBCC940
85000000
93000000
A3000000
94012452
2CFFFEB4
ENDCHAR
STARTCHAR Igrave
ENCODING 204
SWIDTH 167 0
DWIDTH 3 0
BBX 4 12 -1 0
BITMAP
2A10
05A0
0000
0800
0930
0570
01B0
00D0
00C1
00B3
0095
0066
ENDCHAR
STARTCHAR Iacute
ENCODING 205
SWIDTH 167 0
DWIDTH 3 0
BBX 4 12 -1 0
BITMAP
0180
1C50
3400
0800
0930
0570
01B0
00D0
00C1
00B3
0095
0066
ENDCHAR
STARTCHAR Icircumflex
ENCODING 206
SWIDTH 167 0
DWIDTH 3 0
BBX 5 14 -1 0
BITMAP
009000
04FA00
3D5E60
520340
000000
080000
093000
057000
01B000
00D000
00C100
00B300
009500
006600
ENDCHAR
STARTCHAR Idieresis
ENCODING 207
SWIDTH 167 0
DWIDTH 3 0
BBX 5 12 -2 0
BITMAP
230410
8C1F50
010100
008000
009300
005700
001B00
000D00
000C10
000B30
000950
000660
ENDCHAR
STARTCHAR Eth
ENCODING 208
SWIDTH 741 0
DWIDTH 12 0
BBX 12 11 0 -1
BITMAP
5CDDDC720000
41006B6C8000
00003B008B10
00001C0007A0
0002AECD60D2
00035C322085
000009500095
0000095003E1
000045205E70
0000BECEC500
000001210000
ENDCHAR
STARTCHAR Ntilde
ENCODING 209
SWIDTH 609 0
DWIDTH 10 0
BBX 10 11 0 0
BITMAP
0039502600
00A26CC200
3440000000
5900001B00
3E00000D60
4F400005C0
5FA00000D1
66B40000A4
762C2000B3
8705D637C0
76004BC910
ENDCHAR
STARTCHAR Ograve
ENCODING 210
SWIDTH 609 0
DWIDTH 10 0
BBX 10 11 0 0
BITMAP
0000A30000
00002C1000
0000000000
028A620000
1C547DA100
8400007D20
A1000006B0
93000000C2
4B000000A4
0AC30028B0
006DDCB600
ENDCHAR
STARTCHAR Oacute
ENCODING 211
SWIDTH 609 0
DWIDTH 10 0
BBX 10 11 0 0
BITMAP
0000270000
0003C20000
0006200000
028A620000
1C547DA100
8400007D20
A1000006B0
93000000C2
4B000000A4
0AC30028B0
006DDCB600
ENDCHAR
STARTCHAR Ocircumflex
ENCODING 212
SWIDTH 609 0
DWIDTH 10 0
BBX 10 13 0 0
BITMAP
0008100000
003FB00000
02D5D70000
0430250000
0000000000
028A620000
1C547DA100
8400007D20
A1000006B0
93000000C2
4B000000A4
0AC30028B0
006DDCB600
ENDCHAR
STARTCHAR Otilde
ENCODING 213
SWIDTH 609 0
DWIDTH 10 0
BBX 10 11 0 0
BITMAP
0296017000
0935CC3000
0400000000
028A620000
1C547DA100
8400007D20
A1000006B0
93000000C2
4B000000A4
0AC30028B0
006DDCB600
ENDCHAR
STARTCHAR Odieresis
ENCODING 214
SWIDTH 609 0
DWIDTH 10 0
BBX 10 11 0 0
BITMAP
0004123000
001F59C000
0001001000
028A620000
1C547DA100
8400007D20
A1000006B0
93000000C2
4B000000A4
0AC30028B0
006DDCB600
ENDCHAR
STARTCHAR multiply
ENCODING 215
SWIDTH 448 0
DWIDTH 7 0
BBX 6 5 0 1
BITMAP
010001
1D41B5
02DE40
01CD50
0952B0
ENDCHAR
STARTCHAR Oslash
ENCODING 216
SWIDTH 609 0
DWIDTH 10 0
BBX 10 13 0 -2
BITMAP
0000002000
0000057000
0000084000
028A7C0000
1C549F9100
8400967D20
A100D106B0
9305B000C2
5C0A5000A4
0ABE1028B0
00BEDCB600
00D2000000
0060000000
ENDCHAR
STARTCHAR Ugrave
ENCODING 217
SWIDTH 571 0
DWIDTH 9 0
BBX 9 11 0 0
BITMAP
0002A10000
00005B0000
1800003100
7500008600
8300008800
8300006900
6500002B00
4800000E10
0D00006F60
07A239B9B0
009FD50060
ENDCHAR
STARTCHAR Uacute
ENCODING 218
SWIDTH 571 0
DWIDTH 9 0
BBX 9 11 0 0
BITMAP
0000440000
0007A00000
1807003100
7500008600
8300008800
8300006900
6500002B00
4800000E10
0D00006F60
07A239B9B0
009FD50060
ENDCHAR
STARTCHAR Ucircumflex
ENCODING 219
SWIDTH 571 0
DWIDTH 9 0
BBX 9 14 0 0
BITMAP
0000820000
0002FC1000
002C6C8000
0044016000
0000000000
1800003100
7500008600
8300008800
8300006900
6500002B00
4800000E10
0D00006F60
07A239B9B0
009FD50060
ENDCHAR
STARTCHAR Udieresis
ENCODING 220
SWIDTH 571 0
DWIDTH 9 0
BBX 9 11 0 0
BITMAP
0014031000
006E1D8000
1801013100
7500008600
8300008800
8300006900
6500002B00
4800000E10
0D00006F60
07A239B9B0
009FD50060
ENDCHAR
STARTCHAR Yacute
ENCODING 221
SWIDTH 403 0
DWIDTH 6 0
BBX 7 14 0 -1
BITMAP
00006200
000A8000
20160000
A2000610
5B000C10
0A903D00
008DD800
0002F200
0003B000
00076000
000B2000
000C0000
000D1000
00020000
ENDCHAR
STARTCHAR Thorn
ENCODING 222
SWIDTH 497 0
DWIDTH 8 0
BBX 8 13 0 -3
BITMAP
28000000
3C000000
3C000000
3B000000
2C553000
1FA8BC40
0F0003D3
0E000059
0EA101A8
0D8DED81
0C000000
0C100000
03100000
ENDCHAR
STARTCHAR germandbls
ENCODING 223
SWIDTH 590 0
DWIDTH 9 0
BBX 10 15 0 -3
BITMAP
0110000000
3FFD710000
7A106B0000
79000D0000
5A02970000
3B2FF40000
1C027DA100
0C00005C20
0B000003B0
0A100000E2
0922446AB0
0A34986300
0B40000000
0D50000000
0010000000
ENDCHAR
STARTCHAR agrave
ENCODING 224
SWIDTH 505 0
DWIDTH 8 0
BBX 8 10 0 0
BITMAP
002A1000
0005A000
007EA100
00205D10
000006A0
05CCBAF2
6B3007F6
A2000068
6B412456
05BEFC82
ENDCHAR
STARTCHAR aacute
ENCODING 225
SWIDTH 505 0
DWIDTH 8 0
BBX 8 11 0 0
BITMAP
00018000
002C4000
00430000
007EA100
00205D10
000006A0
05CCBAF2
6B3007F6
A2000068
6B412456
05BEFC82
ENDCHAR
STARTCHAR acircumflex
ENCODING 226
SWIDTH 505 0
DWIDTH 8 0
BBX 8 12 0 0
BITMAP
00036000
0009F500
007B7E10
00700510
007EA100
00205D10
000006A0
05CCBAF2
6B3007F6
A2000068
6B412456
05BEFC82
ENDCHAR
STARTCHAR atilde
ENCODING 227
SWIDTH 505 0
DWIDTH 8 0
BBX 8 11 0 0
BITMAP
03940260
0B27CB10
04000000
007EA100
00205D10
000006A0
05CCBAF2
6B3007F6
A2000068
6B412456
05BEFC82
ENDCHAR
STARTCHAR adieresis
ENCODING 228
SWIDTH 505 0
DWIDTH 8 0
BBX 8 11 0 0
BITMAP
00321400
00D85F10
00100100
007EA100
00205D10
000006A0
05CCBAF2
6B3007F6
A2000068
6B412456
05BEFC82
ENDCHAR
STARTCHAR aring
ENCODING 229
SWIDTH 505 0
DWIDTH 8 0
BBX 8 11 0 0
BITMAP
00045000
00556500
00478400
007FC100
00205D10
000006A0
05CCBAF2
6B3007F6
A2000068
6B412456
05BEFC82
ENDCHAR
STARTCHAR ae
ENCODING 230
SWIDTH 881 0
DWIDTH 14 0
BBX 14 9 0 -1
BITMAP
007EA1008CB300
00205D1A603C00
000006D9000C00
05CCBAF5019A00
6B3007FACC7000
A2000069000000
6B41246E500000
05BEFC84ADAAA5
00000000025510
ENDCHAR
STARTCHAR ccedilla
ENCODING 231
SWIDTH 449 0
DWIDTH 7 0
BBX 7 12 0 -5
BITMAP
03BBC400
1C201800
86000100
A3000000
96000000
2D500000
04DEDC70
00A00000
005A6200
00004C10
00840B20
001AA600
ENDCHAR
STARTCHAR egrave
ENCODING 232
SWIDTH 515 0
DWIDTH 8 0
BBX 8 11 0 0
BITMAP
00670000
000A6000
00142000
04C9C500
1C101C00
75002C00
A537D400
97861000
59000000
0A930011
006CFEA2
ENDCHAR
STARTCHAR eacute
ENCODING 233
SWIDTH 515 0
DWIDTH 8 0
BBX 8 11 0 0
BITMAP
00027000
004C2000
00651000
04C9C500
1C101C00
75002C00
A537D400
97861000
59000000
0A930011
006CFEA2
ENDCHAR
STARTCHAR ecircumflex
ENCODING 234
SWIDTH 515 0
DWIDTH 8 0
BBX 8 12 0 0
BITMAP
00027000
0008F600
006C6F20
00741520
04C9C500
1C101C00
75002C00
A537D400
97861000
59000000
0A930011
006CFEA2
ENDCHAR
STARTCHAR edieresis
ENCODING 235
SWIDTH 515 0
DWIDTH 8 0
BBX 8 11 0 0
BITMAP
00502300
02F4AB00
00242100
04C9C500
1C101C00
75002C00
A537D400
97861000
59000000
0A930011
006CFEA2
ENDCHAR
STARTCHAR igrave
ENCODING 236
SWIDTH 174 0
DWIDTH 3 0
BBX 3 10 0 0
BITMAP
5200
3D20
0220
0B00
0C00
0E00
0E20
0C40
0A60
0660
ENDCHAR
STARTCHAR iacute
ENCODING 237
SWIDTH 174 0
DWIDTH 3 0
BBX 4 10 -1 0
BITMAP
01A2
0C50
1300
00B0
00C0
00E0
00E2
00C4
00A6
0066
ENDCHAR
STARTCHAR icircumflex
ENCODING 238
SWIDTH 174 0
DWIDTH 3 0
BBX 5 12 -1 0
BITMAP
008100
04FA00
3D5E60
530240
000000
00B000
00C000
00E000
00E200
00C400
00A600
006600
ENDCHAR
STARTCHAR idieresis
ENCODING 239
SWIDTH 174 0
DWIDTH 3 0
BBX 5 10 -1 0
BITMAP
220400
AB3F30
110200
00B000
00C000
00E000
00E200
00C400
00A600
006600
ENDCHAR
STARTCHAR eth
ENCODING 240
SWIDTH 407 0
DWIDTH 7 0
BBX 7 10 0 -1
BITMAP
26400000
67BB1620
003DFC20
00B67800
039A9E00
3C214D30
84000740
78001C10
09DCE600
00121000
ENDCHAR
STARTCHAR ntilde
ENCODING 241
SWIDTH 459 0
DWIDTH 7 0
BBX 8 10 0 0
BITMAP
18710700
753BD400
31000000
218DD300
8F503D10
8A000870
780003C0
5A0000F0
2E0000E1
0A1000C0
ENDCHAR
STARTCHAR ograve
ENCODING 242
SWIDTH 487 0
DWIDTH 8 0
BBX 8 9 0 0
BITMAP
000A3000
0002C100
018DEA10
1B601AB0
750000B2
A1000095
840001E3
3C303D90
04CED700
ENDCHAR
STARTCHAR oacute
ENCODING 243
SWIDTH 487 0
DWIDTH 8 0
BBX 8 10 0 0
BITMAP
00017000
002C3000
00530000
018DEA10
1B601AB0
750000B2
A1000095
840001E3
3C303D90
04CED700
ENDCHAR
STARTCHAR ocircumflex
ENCODING 244
SWIDTH 487 0
DWIDTH 8 0
BBX 8 11 0 0
BITMAP
00063000
000DE200
01B7AB00
02500700
018DEA10
1B601AB0
750000B2
A1000095
840001E3
3C303D90
04CED700
ENDCHAR
STARTCHAR otilde
ENCODING 245
SWIDTH 487 0
DWIDTH 8 0
BBX 8 9 0 0
BITMAP
02950260
0A26CC20
058DEA10
1B601AB0
750000B2
A1000095
840001E3
3C303D90
04CED700
ENDCHAR
STARTCHAR odieresis
ENCODING 246
SWIDTH 487 0
DWIDTH 8 0
BBX 8 9 0 0
BITMAP
00412300
01F58D00
019DEB10
1B601AB0
750000B2
A1000095
840001E3
3C303D90
04CED700
ENDCHAR
STARTCHAR divide
ENCODING 247
SWIDTH 335 0
DWIDTH 5 0
BBX 5 5 0 1
BITMAP
003000
02A510
3A8860
000000
006000
ENDCHAR
STARTCHAR oslash
ENCODING 248
SWIDTH 487 0
DWIDTH 8 0
BBX 8 8 0 0
BITMAP
00000300
00379E00
08B6BE70
6803D2D1
A20D4095
948901D3
4DD12CA0
0DCDD810
ENDCHAR
STARTCHAR ugrave
ENCODING 249
SWIDTH 501 0
DWIDTH 8 0
BBX 8 11 0 0
BITMAP
00940000
002C2000
00000000
83000010
B1000590
A20005C0
850005C0
4B000AE0
0B607BC3
02BE9059
00000015
ENDCHAR
STARTCHAR uacute
ENCODING 250
SWIDTH 501 0
DWIDTH 8 0
BBX 8 11 0 0
BITMAP
00018000
002C4000
00430000
83000010
B1000590
A20005C0
850005C0
4B000AE0
0B607BC3
02BE9059
00000015
ENDCHAR
STARTCHAR ucircumflex
ENCODING 251
SWIDTH 501 0
DWIDTH 8 0
BBX 8 12 0 0
BITMAP
00036000
000AF400
008B7E10
00700610
83000010
B1000590
A20005C0
850005C0
4B000AE0
0B607BC3
02BE9059
00000015
ENDCHAR
STARTCHAR udieresis
ENCODING 252
SWIDTH 501 0
DWIDTH 8 0
BBX 8 10 0 0
BITMAP
00503200
05F1C900
83101010
B1000590
A20005C0
850005C0
4B000AE0
0B607BC3
02BE9059
00000015
ENDCHAR
STARTCHAR yacute
ENCODING 253
SWIDTH 487 0
DWIDTH 8 0
BBX 8 19 0 -8
BITMAP
00017000
002D3000
00520000
00000000
70000070
B10000B0
930000C2
680000B4
1C1001D5
05B45CD7
00398137
00000038
00000048
00000056
00000075
230000A3
1D3000D0
04E84A70
0018C800
ENDCHAR
STARTCHAR thorn
ENCODING 254
SWIDTH 520 0
DWIDTH 8 0
BBX 8 12 0 -3
BITMAP
01000000
39000000
57000000
678CDC70
6E6102B8
6A00001E
7A10003D
8DEECDE6
87022200
87000000
87000000
67000000
ENDCHAR
STARTCHAR ydieresis
ENCODING 255
SWIDTH 487 0
DWIDTH 8 0
BBX 8 18 0 -8
BITMAP
00503200
04F2C900
00101000
70000070
B10000B0
930000C2
680000B4
1C1001D5
05B45CD7
00398137
00000038
00000048
00000056
00000075
230000A3
1D3000D0
04E84A70
0018C800
ENDCHAR
STARTCHAR Amacron
ENCODING 256
SWIDTH 562 0
DWIDTH 9 0
BBX 9 15 0 0
BITMAP
0069970000
0086460000
0001200000
008AAC1000
067004B000
0A00008500
0A00002A00
1800000C00
3700000A30
4A54332B50
7C65689C70
2A00000680
2C00000580
0E00000780
0A10000950
ENDCHAR
STARTCHAR amacron
ENCODING 257
SWIDTH 505 0
DWIDTH 8 0
BBX 8 11 0 0
BITMAP
00799600
01855500
00000000
007EA100
00205D10
000006A0
05CCBAF2
6B3007F6
A2000068
6B412456
05BEFC82
ENDCHAR
STARTCHAR Abreve
ENCODING 258
SWIDTH 562 0
DWIDTH 9 0
BBX 9 15 0 0
BITMAP
00072A0000
0003830000
0001200000
008AAC1000
067004B000
0A00008500
0A00002A00
1800000C00
3700000A30
4A54332B50
7C65689C70
2A00000680
2C00000580
0E00000780
0A10000950
ENDCHAR
STARTCHAR abreve
ENCODING 259
SWIDTH 505 0
DWIDTH 8 0
BBX 8 10 0 0
BITMAP
00729200
00285000
007EA100
00205D10
000006A0
05CCBAF2
6B3007F6
A2000068
6B412456
05BEFC82
ENDCHAR
STARTCHAR Aogonek
ENCODING 260
SWIDTH 562 0
DWIDTH 9 0
BBX 9 16 0 -3
BITMAP
0001200000
008AAC1000
067004B000
0A00008500
0A00002A00
1800000C00
3700000A30
4A54332B50
7C65689C70
2A00000680
2C00000580
0E00000780
0A10004D50
000001C100
000001C640
0000000330
ENDCHAR
STARTCHAR aogonek
ENCODING 261
SWIDTH 505 0
DWIDTH 8 0
BBX 8 10 0 -2
BITMAP
007EA100
00205D10
000006A0
05CCBAF2
6B3007F6
A2000068
6B412456
05BEFE82
00008400
00003A83
ENDCHAR
STARTCHAR Cacute
ENCODING 262
SWIDTH 515 0
DWIDTH 8 0
BBX 8 13 0 0
BITMAP
00002700
0003C200
00064500
001ADD40
01C60810
09400000
28000000
82000000
A1000000
A2000000
67000000
1D413687
04DFC951
ENDCHAR
STARTCHAR cacute
ENCODING 263
SWIDTH 449 0
DWIDTH 7 0
BBX 7 11 0 0
BITMAP
00008100
001B6000
00350000
00000000
02BCC400
1C201900
86000100
A3000000
96000000
2D500000
03BDDC70
ENDCHAR
STARTCHAR Ccircumflex
ENCODING 264
SWIDTH 515 0
DWIDTH 8 0
BBX 8 14 0 0
BITMAP
00027000
0008F600
006C6F20
00712A20
001ADD40
01C60810
09400000
28000000
82000000
A1000000
A2000000
67000000
1D413687
04DFC951
ENDCHAR
STARTCHAR ccircumflex
ENCODING 265
SWIDTH 449 0
DWIDTH 7 0
BBX 7 12 0 0
BITMAP
00072000
002FC100
02C6C900
04401600
00000000
02BCC400
1C201900
86000100
A3000000
96000000
2D500000
03BDDC70
ENDCHAR
STARTCHAR Cdotaccent
ENCODING 266
SWIDTH 515 0
DWIDTH 8 0
BBX 8 13 0 0
BITMAP
00028000
00017000
00002500
001ADD40
01C60810
09400000
28000000
82000000
A1000000
A2000000
67000000
1D413687
04DFC951
ENDCHAR
STARTCHAR cdotaccent
ENCODING 267
SWIDTH 449 0
DWIDTH 7 0
BBX 7 9 0 0
BITMAP
000A0000
00070000
02BCC400
1C201900
86000100
A3000000
96000000
2D500000
03BDDC70
ENDCHAR
STARTCHAR Ccaron
ENCODING 268
SWIDTH 515 0
DWIDTH 8 0
BBX 8 13 0 0
BITMAP
00182390
0001CC30
00004500
001ADD40
01C60810
09400000
28000000
82000000
A1000000
A2000000
67000000
1D413687
04DFC951
ENDCHAR
STARTCHAR ccaron
ENCODING 269
SWIDTH 449 0
DWIDTH 7 0
BBX 7 10 0 0
BITMAP
03715700
003DB100
00010000
02BCC400
1C201900
86000100
A3000000
96000000
2D500000
03BDDC70
ENDCHAR
STARTCHAR Dcaron
ENCODING 270
SWIDTH 741 0
DWIDTH 12 0
BBX 12 13 0 -1
BITMAP
000083290000
00001BD40000
5CDDDC820000
41005B6C8000
00002B008B10
00000C0007A0
00000C1000D2
00000B300085
00000A500095
0000095003E1
000044205E70
0000BECEC500
000001210000
ENDCHAR
STARTCHAR dcaron
ENCODING 271
SWIDTH 582 0
DWIDTH 9 0
BBX 9 12 0 0
BITMAP
0000092050
00000A90D0
000007E0E0
000003F2C0
000000F510
06EE81D700
3F737DE800
880002E900
A50000EA00
870009EC00
3D33AB2D00
06ED700300
ENDCHAR
STARTCHAR Dcroat
ENCODING 272
SWIDTH 741 0
DWIDTH 12 0
BBX 12 11 0 -1
BITMAP
5CDDDC720000
41005B6C8000
00002B008B10
00000C0007A0
00016D7100D2
00079DA40085
00000A500095
0000095003E1
000044205E70
0000BECEC500
000001210000
ENDCHAR
STARTCHAR dcroat
ENCODING 273
SWIDTH 524 0
DWIDTH 8 0
BBX 9 12 0 0
BITMAP
0000050000
00000B7000
00015BD710
0007A9F940
002200E400
09FFB3C600
4E405DE800
980001E900
A50001EA00
870009FC00
3D33BB2D00
06ED700400
ENDCHAR
STARTCHAR Emacron
ENCODING 274
SWIDTH 524 0
DWIDTH 8 0
BBX 8 12 0 0
BITMAP
00599800
00864600
5DDCCCB2
77110011
77000000
77001350
9DBCC940
85000000
93000000
A3000000
94012452
2CFFFEB4
ENDCHAR
STARTCHAR emacron
ENCODING 275
SWIDTH 515 0
DWIDTH 8 0
BBX 8 11 0 0
BITMAP
00599800
00864600
00141000
04C9C500
1C101C00
75002C00
A537D400
97861000
59000000
0A930011
006CFEA2
ENDCHAR
STARTCHAR Ebreve
ENCODING 276
SWIDTH 524 0
DWIDTH 8 0
BBX 8 13 0 0
BITMAP
00546600
00076000
00000000
5DDCCCB2
77110011
77000000
77001350
9DBCC940
85000000
93000000
A3000000
94012452
2CFFFEB4
ENDCHAR
STARTCHAR ebreve
ENCODING 277
SWIDTH 515 0
DWIDTH 8 0
BBX 8 11 0 0
BITMAP
00082A00
00048200
00141000
04C9C500
1C101C00
75002C00
A537D400
97861000
59000000
0A930011
006CFEA2
ENDCHAR
STARTCHAR Edotaccent
ENCODING 278
SWIDTH 524 0
DWIDTH 8 0
BBX 8 12 0 0
BITMAP
00064000
00044000
5DDCCCB2
77110011
77000000
77001350
9DBCC940
85000000
93000000
A3000000
94012452
2CFFFEB4
ENDCHAR
STARTCHAR edotaccent
ENCODING 279
SWIDTH 515 0
DWIDTH 8 0
BBX 8 11 0 0
BITMAP
000A0000
00070000
00141000
04C9C500
1C101C00
75002C00
A537D400
97861000
59000000
0A930011
006CFEA2
ENDCHAR
STARTCHAR Eogonek
ENCODING 280
SWIDTH 524 0
DWIDTH 8 0
BBX 8 13 0 -3
BITMAP
5DDCCCB2
77110011
77000000
77001350
9DBCC940
85000000
93000000
A3000000
94012452
2CFFFFB4
0000B400
0000A841
00000241
ENDCHAR
STARTCHAR eogonek
ENCODING 281
SWIDTH 515 0
DWIDTH 8 0
BBX 8 12 0 -3
BITMAP
00141000
04C9C500
1C101C00
75002C00
A537D400
97861000
59000000
0A930011
006CFEA2
0000C200
0000C750
00000230
ENDCHAR
STARTCHAR Ecaron
ENCODING 282
SWIDTH 524 0
DWIDTH 8 0
BBX 8 12 0 0
BITMAP
00651830
0008E700
5DDCDCB2
77110011
77000000
77001350
9DBCC940
85000000
93000000
A3000000
94012452
2CFFFEB4
ENDCHAR
STARTCHAR ecaron
ENCODING 283
SWIDTH 515 0
DWIDTH 8 0
BBX 8 11 0 0
BITMAP
00741820
0008E600
00143000
04C9C500
1C101C00
75002C00
A537D400
97861000
59000000
0A930011
006CFEA2
ENDCHAR
STARTCHAR Gcircumflex
ENCODING 284
SWIDTH 571 0
DWIDTH 9 0
BBX 9 14 0 -1
BITMAP
0000055000
00000CE300
0000A99D00
0001600700
0000014400
0003AB9A30
007A200000
0780000000
2B00A78920
7600344960
6600000860
1C40026E60
03BDC85A60
00000005B0
ENDCHAR
STARTCHAR gcircumflex
ENCODING 285
SWIDTH 366 0
DWIDTH 6 0
BBX 9 20 -3 -8
BITMAP
0000045000
00000BF300
00009A8E00
0001600610
0000000000
0000038300
00006A5C00
0002B00A40
0008500970
000A400C90
0005C69FA0
00005A68A0
00000004B0
00000002B0
00000001C0
04000001D0
1B000002B0
0A81000680
009E955E30
00027BB600
ENDCHAR
STARTCHAR Gbreve
ENCODING 286
SWIDTH 571 0
DWIDTH 9 0
BBX 9 11 0 -1
BITMAP
00072A0000
0003844400
0003AB9A30
007A200000
0780000000
2B00A78920
7600344960
6600000860
1C40026E60
03BDC85A60
00000005B0
ENDCHAR
STARTCHAR gbreve
ENCODING 287
SWIDTH 366 0
DWIDTH 6 0
BBX 9 17 -3 -8
BITMAP
0000637400
0000176000
0000038300
00006A5C00
0002B00A40
0008500970
000A400C90
0005C69FA0
00005A68A0
00000004B0
00000002B0
00000001C0
04000001D0
1B000002B0
0A81000680
009E955E30
00027BB600
ENDCHAR
STARTCHAR Gdotaccent
ENCODING 288
SWIDTH 571 0
DWIDTH 9 0
BBX 9 11 0 -1
BITMAP
00000A0000
0000085400
0003AB9A30
007A200000
0780000000
2B00A78920
7600344960
6600000860
1C40026E60
03BDC85A60
00000005B0
ENDCHAR
STARTCHAR gdotaccent
ENCODING 289
SWIDTH 366 0
DWIDTH 6 0
BBX 9 17 -3 -8
BITMAP
0000073000
0000053000
0000038300
00006A5C00
0002B00A40
0008500970
000A400C90
0005C69FA0
00005A68A0
00000004B0
00000002B0
00000001C0
04000001D0
1B000002B0
0A81000680
009E955E30
00027BB600
ENDCHAR
STARTCHAR Gcommaaccent
ENCODING 290
SWIDTH 571 0
DWIDTH 9 0
BBX 9 14 0 -5
BITMAP
0000014400
0003AB9A30
007A200000
0780000000
2B00A78920
7600344960
6600000860
1C40026E60
03BDC85A60
00000005B0
0000400000
0001E10000
0000C20000
0001C00000
ENDCHAR
STARTCHAR gcommaaccent
ENCODING 291
SWIDTH 366 0
DWIDTH 6 0
BBX 9 22 -3 -8
BITMAP
0000050000
0000094000
0000086000
0000057000
0000001000
0000000000
0000000000
0000038300
00006A5C00
0002B00A40
0008500970
000A400C90
0005C69FA0
00005A68A0
00000004B0
00000002B0
00000001C0
04000001D0
1B000002B0
0A81000680
009E955E30
00027BB600
ENDCHAR
STARTCHAR Hcircumflex
ENCODING 292
SWIDTH 524 0
DWIDTH 8 0
BBX 8 16 0 0
BITMAP
00027000
0008F600
006C6F20
00710520
00000000
21000035
64000065
66000075
48000075
390002B6
2B03ACB6
2ECB4067
6F400058
0C200049
0A20003B
0710000C
ENDCHAR
STARTCHAR hcircumflex
ENCODING 293
SWIDTH 427 0
DWIDTH 7 0
BBX 8 13 -1 0
BITMAP
00007200
0202EC10
2A2C6C90
0E440160
0A400000
08723000
05EFFC10
03C10780
02A000B0
01C000B2
00E000B3
00E100C3
00B100C1
ENDCHAR
STARTCHAR hbar
ENCODING 295
SWIDTH 427 0
DWIDTH 7 0
BBX 9 12 -2 0
BITMAP
0020000000
02A0000000
00E1000000
1BFE900000
1387330000
005EFFC100
003C107800
002A000B00
001C000B20
000E000B30
000E100C30
000B100C10
ENDCHAR
STARTCHAR Itilde
ENCODING 296
SWIDTH 167 0
DWIDTH 3 0
BBX 7 11 -2 0
BITMAP
07810620
382AC700
13800000
00930000
00570000
001B0000
000D0000
000C1000
000B3000
00095000
00066000
ENDCHAR
STARTCHAR itilde
ENCODING 297
SWIDTH 174 0
DWIDTH 3 0
BBX 6 11 -1 0
BITMAP
162015
A49AC3
600210
000000
00B000
00C000
00E000
00E200
00C400
00A600
006600
ENDCHAR
STARTCHAR imacron
ENCODING 299
SWIDTH 174 0
DWIDTH 3 0
BBX 5 10 -1 0
BITMAP
389920
674520
000000
00B000
00C000
00E000
00E200
00C400
00A600
006600
ENDCHAR
STARTCHAR Ibreve
ENCODING 300
SWIDTH 167 0
DWIDTH 3 0
BBX 3 12 0 0
BITMAP
82A0
3830
0000
8000
9300
5700
1B00
0D00
0C10
0B30
0950
0660
ENDCHAR
STARTCHAR ibreve
ENCODING 301
SWIDTH 174 0
DWIDTH 3 0
BBX 4 10 -1 0
BITMAP
2206
1AA3
0000
00B0
00C0
00E0
00E2
00C4
00A6
0066
ENDCHAR
STARTCHAR Iogonek
ENCODING 302
SWIDTH 167 0
DWIDTH 3 0
BBX 3 12 0 -3
BITMAP
8000
9300
5700
1B00
0D00
0C10
0B30
0950
2C60
C200
C740
0340
ENDCHAR
STARTCHAR iogonek
ENCODING 303
SWIDTH 174 0
DWIDTH 3 0
BBX 4 13 -1 -3
BITMAP
0610
0410
0000
00B0
00C0
00E0
00E2
00C4
00A6
03C6
1C20
2C53
0143
ENDCHAR
STARTCHAR Idotaccent
ENCODING 304
SWIDTH 167 0
DWIDTH 3 0
BBX 4 12 -1 0
BITMAP
1900
0700
0000
0800
0930
0570
01B0
00D0
00C1
00B3
0095
0066
ENDCHAR
STARTCHAR dotlessi
ENCODING 305
SWIDTH 174 0
DWIDTH 3 0
BBX 2 7 1 0
BITMAP
B0
C0
E0
E2
C4
A6
66
ENDCHAR
STARTCHAR Jcircumflex
ENCODING 308
SWIDTH 439 0
DWIDTH 7 0
BBX 8 16 0 0
BITMAP
00001800
00006F80
0005D5E4
00061043
00000100
00000B00
00000C10
00000A40
00000860
00000680
410004A0
940002B0
2A0002B0
048003A0
006A1670
0004CC10
ENDCHAR
STARTCHAR jcircumflex
ENCODING 309
SWIDTH 200 0
DWIDTH 3 0
BBX 6 20 -2 -8
BITMAP
000720
002EC1
02C6C9
044016
000000
000200
000A20
000870
0006A0
0003D0
0001F1
0000D3
0000A5
100087
A20068
790068
1D3058
04D486
003DF3
000020
ENDCHAR
STARTCHAR Kcommaaccent
ENCODING 310
SWIDTH 468 0
DWIDTH 8 0
BBX 7 15 0 -5
BITMAP
20001200
A104C200
933D2000
75C30000
5E500000
4E200000
4DD20000
394D5000
2B01B910
0B0006D0
00000000
00030000
000C4000
000A4000
000D1000
ENDCHAR
STARTCHAR kcommaaccent
ENCODING 311
SWIDTH 403 0
DWIDTH 6 0
BBX 7 15 0 -5
BITMAP
60000000
B0000000
B1001000
8504B000
681A1000
3DB10000
2F500000
1F800000
1EAB5200
2A04BD30
00000000
00120000
005B0000
003B0000
00770000
ENDCHAR
STARTCHAR Lacute
ENCODING 313
SWIDTH 346 0
DWIDTH 6 0
BBX 6 12 0 0
BITMAP
000270
003C20
006200
050000
3A0000
690000
770000
950000
A30000
A30000
882100
1AEFE2
ENDCHAR
STARTCHAR lacute
ENCODING 314
SWIDTH 120 0
DWIDTH 2 0
BBX 4 13 -1 0
BITMAP
0071
0B70
2500
0000
0830
0860
0860
0970
0970
0970
0870
0870
0650
ENDCHAR
STARTCHAR Lcommaaccent
ENCODING 315
SWIDTH 346 0
DWIDTH 6 0
BBX 6 14 0 -5
BITMAP
050000
3A0000
690000
770000
950000
A30000
A30000
882100
1AEFE2
000000
003000
00B400
009500
00D100
ENDCHAR
STARTCHAR lcommaaccent
ENCODING 316
SWIDTH 120 0
DWIDTH 2 0
BBX 2 14 0 -5
BITMAP
83
86
86
97
97
97
87
87
65
00
21
87
68
A4
ENDCHAR
STARTCHAR Lcaron
ENCODING 317
SWIDTH 346 0
DWIDTH 6 0
BBX 6 12 0 0
BITMAP
002300
004900
003B00
051B00
3A0100
690000
770000
950000
A30000
A30000
882100
1AEFE2
ENDCHAR
STARTCHAR lcaron
ENCODING 318
SWIDTH 222 0
DWIDTH 4 0
BBX 4 12 0 0
BITMAP
0050
00B1
00B4
8384
8600
8600
9700
9700
9700
8700
8700
6500
ENDCHAR
STARTCHAR Ldot
ENCODING 319
SWIDTH 346 0
DWIDTH 6 0
BBX 6 9 0 0
BITMAP
050000
3A0000
690000
770000
958400
A5F900
A32000
882100
1AEFE2
ENDCHAR
STARTCHAR ldot
ENCODING 320
SWIDTH 333 0
DWIDTH 5 0
BBX 5 9 0 0
BITMAP
830000
860000
860000
970000
970830
973F80
870200
870000
650000
ENDCHAR
STARTCHAR Lslash
ENCODING 321
SWIDTH 346 0
DWIDTH 6 0
BBX 6 9 0 0
BITMAP
033000
085000
0B4000
0C2000
0D9100
6F9000
6E0000
0B7431
029DDB
ENDCHAR
STARTCHAR lslash
ENCODING 322
SWIDTH 120 0
DWIDTH 2 0
BBX 4 10 -1 0
BITMAP
0210
0670
0680
0781
07EA
4DA0
87A0
0690
0590
0350
ENDCHAR
STARTCHAR Nacute
ENCODING 323
SWIDTH 609 0
DWIDTH 10 0
BBX 10 11 0 0
BITMAP
0000270000
0003C20000
3406200000
5900001B00
3E00000D60
4F400005C0
5FA00000D1
66B40000A4
762C2000B3
8705D637C0
76004BC910
ENDCHAR
STARTCHAR nacute
ENCODING 324
SWIDTH 459 0
DWIDTH 7 0
BBX 8 11 0 0
BITMAP
00054000
008A0000
00700000
00000000
218DD300
8F503D10
8A000870
780003C0
5A0000F0
2E0000E1
0A1000C0
ENDCHAR
STARTCHAR Ncommaaccent
ENCODING 325
SWIDTH 609 0
DWIDTH 10 0
BBX 10 14 0 -5
BITMAP
3400000000
5900001B00
3E00000D60
4F400005C0
5FA00000D1
66B40000A4
762C2000B3
8705D637C0
76004BC910
0000000000
0000310000
0000A60000
0000760000
0000B20000
ENDCHAR
STARTCHAR ncommaaccent
ENCODING 326
SWIDTH 459 0
DWIDTH 7 0
BBX 8 12 0 -5
BITMAP
218DD300
8F503D10
8A000870
780003C0
5A0000F0
2E0000E1
0A1000C0
00000000
00040000
000D3000
000B3000
000D0000
ENDCHAR
STARTCHAR Ncaron
ENCODING 327
SWIDTH 609 0
DWIDTH 10 0
BBX 10 12 0 0
BITMAP
0018239000
0001BD4000
0000110000
3400000000
5900001B00
3E00000D60
4F400005C0
5FA00000D1
66B40000A4
762C2000B3
8705D637C0
76004BC910
ENDCHAR
STARTCHAR ncaron
ENCODING 328
SWIDTH 459 0
DWIDTH 7 0
BBX 8 10 0 0
BITMAP
02814800
002DB200
00010000
218DD300
8F503D10
8A000870
780003C0
5A0000F0
2E0000E1
0A1000C0
ENDCHAR
STARTCHAR napostrophe
ENCODING 329
SWIDTH 459 0
DWIDTH 7 0
BBX 8 11 0 0
BITMAP
02100000
08800000
06800000
0A400000
218DD300
8F503D10
8A000870
780003C0
5A0000F0
2E0000E1
0A1000C0
ENDCHAR
STARTCHAR Omacron
ENCODING 332
SWIDTH 609 0
DWIDTH 10 0
BBX 10 11 0 0
BITMAP
0006996000
0018555000
0000000000
028A620000
1C547DA100
8400007D20
A1000006B0
93000000C2
4B000000A4
0AC30028B0
006DDCB600
ENDCHAR
STARTCHAR omacron
ENCODING 333
SWIDTH 487 0
DWIDTH 8 0
BBX 8 9 0 0
BITMAP
00699600
01854500
018DEA10
1B601AB0
750000B2
A1000095
840001E3
3C303D90
04CED700
ENDCHAR
STARTCHAR Obreve
ENCODING 334
SWIDTH 609 0
DWIDTH 10 0
BBX 10 10 0 0
BITMAP
0006384000
0001750000
028A620000
1C547DA100
8400007D20
A1000006B0
93000000C2
4B000000A4
0AC30028B0
006DDCB600
ENDCHAR
STARTCHAR obreve
ENCODING 335
SWIDTH 487 0
DWIDTH 8 0
BBX 8 9 0 0
BITMAP
0072A000
00582000
018DEA10
1B601AB0
750000B2
A1000095
840001E3
3C303D90
04CED700
ENDCHAR
STARTCHAR Ohungarumlaut
ENCODING 336
SWIDTH 609 0
DWIDTH 10 0
BBX 10 11 0 0
BITMAP
0007764000
002A5B0000
0000100000
028A620000
1C547DA100
8400007D20
A1000006B0
93000000C2
4B000000A4
0AC30028B0
006DDCB600
ENDCHAR
STARTCHAR ohungarumlaut
ENCODING 337
SWIDTH 487 0
DWIDTH 8 0
BBX 8 9 0 0
BITMAP
00786400
01A4B100
018EEA10
1B601AB0
750000B2
A1000095
840001E3
3C303D90
04CED700
ENDCHAR
STARTCHAR OE
ENCODING 338
SWIDTH 848 0
DWIDTH 14 0
BBX 14 8 0 0
BITMAP
029B7168877750
2C439CD4322230
84000AF1000000
A10004F778A940
930001E3210000
4C0002C0000000
09C307C0000010
006CDC9BCDDDA2
ENDCHAR
STARTCHAR oe
ENCODING 339
SWIDTH 875 0
DWIDTH 14 0
BBX 14 9 0 -1
BITMAP
000000006A8000
0037950A727900
08B67DB8000C00
680001D3008900
A20000BAAD8000
940001D5200000
3C202CCC100000
05CED815DA7784
00000000168730
ENDCHAR
STARTCHAR Racute
ENCODING 340
SWIDTH 579 0
DWIDTH 9 0
BBX 10 14 -1 -1
BITMAP
0000007200
00000A8000
0000160000
06CDEEC700
1C200029C1
0307000095
001C0017E3
000EADE930
000CA20000
000AD30000
00076C3000
000371B500
0000601AA1
0000000057
ENDCHAR
STARTCHAR racute
ENCODING 341
SWIDTH 346 0
DWIDTH 6 0
BBX 6 11 0 0
BITMAP
000720
00A700
016000
001300
6ABCE3
A70011
940000
670000
3C0000
0D1000
073000
ENDCHAR
STARTCHAR Rcommaaccent
ENCODING 342
SWIDTH 579 0
DWIDTH 9 0
BBX 10 15 -1 -5
BITMAP
06CDEEC700
1C200029C1
0307000095
001C0017E3
000EADE930
000CA20000
000AD30000
00076C3000
000371B500
0000601AA1
0000000057
0000030000
00000C3000
00000A4000
00000D1000
ENDCHAR
STARTCHAR rcommaaccent
ENCODING 343
SWIDTH 346 0
DWIDTH 6 0
BBX 6 13 0 -5
BITMAP
001300
6ABCE3
A70011
940000
670000
3C0000
0D1000
073000
000000
003000
00B400
009500
00D100
ENDCHAR
STARTCHAR Rcaron
ENCODING 344
SWIDTH 579 0
DWIDTH 9 0
BBX 10 14 -1 -1
BITMAP
0003715700
00003EB100
0000010000
06CDEEC700
1C200029C1
0307000095
001C0017E3
000EADE930
000CA20000
000AD30000
00076C3000
000371B500
0000601AA1
0000000057
ENDCHAR
STARTCHAR rcaron
ENCODING 345
SWIDTH 346 0
DWIDTH 6 0
BBX 6 10 0 0
BITMAP
182390
01CD30
002300
6ABCE3
A70011
940000
670000
3C0000
0D1000
073000
ENDCHAR
STARTCHAR Sacute
ENCODING 346
SWIDTH 627 0
DWIDTH 10 0
BBX 10 14 0 -1
BITMAP
0000071000
0000B70000
0002500000
0004897200
0098325D60
00C0000020
0089000000
0006C60000
000018D600
52000019B1
8600000088
1B61000097
006BCCCD80
0000011000
ENDCHAR
STARTCHAR sacute
ENCODING 347
SWIDTH 514 0
DWIDTH 8 0
BBX 8 11 0 0
BITMAP
00003600
0005C100
00061000
00331000
2CA9C400
58003800
1C621100
0169BC91
0000008A
7920008A
06CDDEB2
ENDCHAR
STARTCHAR Scircumflex
ENCODING 348
SWIDTH 627 0
DWIDTH 10 0
BBX 10 15 0 -1
BITMAP
0000360000
0000AF4000
0008B7E100
0007006100
0004897200
0098325D60
00C0000020
0089000000
0006C60000
000018D600
52000019B1
8600000088
1B61000097
006BCCCD80
0000011000
ENDCHAR
STARTCHAR scircumflex
ENCODING 349
SWIDTH 514 0
DWIDTH 8 0
BBX 8 12 0 0
BITMAP
00027000
0008F500
007C6E20
00710520
00331000
2CA9C400
58003800
1C621100
0169BC91
0000008A
7920008A
06CDDEB2
ENDCHAR
STARTCHAR Scedilla
ENCODING 350
SWIDTH 627 0
DWIDTH 10 0
BBX 10 15 0 -5
BITMAP
0004897200
0098325D60
00C0000020
0089000000
0006C60000
000018D600
52000019B1
8600000088
1A61000097
006DCCCD80
000A011000
0007941000
000026C000
000820C100
0003BA6000
ENDCHAR
STARTCHAR scedilla
ENCODING 351
SWIDTH 514 0
DWIDTH 8 0
BBX 8 13 0 -5
BITMAP
00331000
2CA9C400
58003800
1C621100
0169BC91
0000008A
7920008A
06DDDEB2
00A00000
00595100
00025C10
00730A20
002BA700
ENDCHAR
STARTCHAR Scaron
ENCODING 352
SWIDTH 627 0
DWIDTH 10 0
BBX 10 13 0 -1
BITMAP
0007329100
0000AD5000
00049A7200
0098325D60
00C0000020
0089000000
0006C60000
000018D600
52000019B1
8600000088
1B61000097
006BCCCD80
0000011000
ENDCHAR
STARTCHAR scaron
ENCODING 353
SWIDTH 514 0
DWIDTH 8 0
BBX 8 10 0 0
BITMAP
00741820
0008E600
00342000
2CA9C400
58003800
1C621100
0169BC91
0000008A
7920008A
06CDDEB2
ENDCHAR
STARTCHAR Tcommaaccent
ENCODING 354
SWIDTH 581 0
DWIDTH 9 0
BBX 11 16 0 -5
BITMAP
333221000000
68BCDFDDC930
00000C002540
00000C000000
00000C000000
00000C100000
00000B300000
000009500000
000007800000
000005C00000
000002E20000
000000000000
000001300000
000003D00000
000001D00000
000005900000
ENDCHAR
STARTCHAR tcommaaccent
ENCODING 355
SWIDTH 328 0
DWIDTH 5 0
BBX 6 15 0 -5
BITMAP
00D000
00F000
00E100
00F100
9EFEC1
00E200
00E200
00E300
00C300
007300
000000
004000
00E200
00B200
01D000
ENDCHAR
STARTCHAR Tcaron
ENCODING 356
SWIDTH 581 0
DWIDTH 9 0
BBX 11 12 0 0
BITMAP
002814700000
3335FC200000
68BCEFDDC930
00000C002540
00000C000000
00000C000000
00000C100000
00000B300000
000009500000
000007800000
000005C00000
000002E20000
ENDCHAR
STARTCHAR tcaron
ENCODING 357
SWIDTH 431 0
DWIDTH 7 0
BBX 7 12 0 0
BITMAP
00000410
00000670
00D00590
00F00390
00E10010
00F10000
9EFEC100
00E20000
00E20000
00E30000
00C30000
00730000
ENDCHAR
STARTCHAR Utilde
ENCODING 360
SWIDTH 571 0
DWIDTH 9 0
BBX 9 11 0 0
BITMAP
0059304400
01B19C9000
1840003100
7500008600
8300008800
8300006900
6500002B00
4800000E10
0D00006F60
07A239B9B0
009FD50060
ENDCHAR
STARTCHAR utilde
ENCODING 361
SWIDTH 501 0
DWIDTH 8 0
BBX 8 11 0 0
BITMAP
01871070
0663BD50
03100000
83000010
B1000590
A20005C0
850005C0
4B000AE0
0B607BC3
02BE9059
00000015
ENDCHAR
STARTCHAR Umacron
ENCODING 362
SWIDTH 571 0
DWIDTH 9 0
BBX 9 11 0 0
BITMAP
0018994000
0047554000
1800003100
7500008600
8300008800
8300006900
6500002B00
4800000E10
0D00006F60
07A239B9B0
009FD50060
ENDCHAR
STARTCHAR umacron
ENCODING 363
SWIDTH 501 0
DWIDTH 8 0
BBX 8 10 0 0
BITMAP
01899400
03755400
83000010
B1000590
A20005C0
850005C0
4B000AE0
0B607BC3
02BE9059
00000015
ENDCHAR
STARTCHAR Ubreve
ENCODING 364
SWIDTH 571 0
DWIDTH 9 0
BBX 9 10 0 0
BITMAP
00072A0000
1803833100
7500008600
8300008800
8300006900
6500002B00
4800000E10
0D00006F60
07A239B9B0
009FD50060
ENDCHAR
STARTCHAR ubreve
ENCODING 365
SWIDTH 501 0
DWIDTH 8 0
BBX 8 10 0 0
BITMAP
0072A000
00383000
83000010
B1000590
A20005C0
850005C0
4B000AE0
0B607BC3
02BE9059
00000015
ENDCHAR
STARTCHAR Uring
ENCODING 366
SWIDTH 571 0
DWIDTH 9 0
BBX 9 12 0 0
BITMAP
0000100000
0008880000
0008190000
1804723100
7500008600
8300008800
8300006900
6500002B00
4800000E10
0D00006F60
07A239B9B0
009FD50060
ENDCHAR
STARTCHAR uring
ENCODING 367
SWIDTH 501 0
DWIDTH 8 0
BBX 8 10 0 0
BITMAP
00011000
0048A100
83817310
B1175590
A20005C0
850005C0
4B000AE0
0B607BC3
02BE9059
00000015
ENDCHAR
STARTCHAR Uhungarumlaut
ENCODING 368
SWIDTH 571 0
DWIDTH 9 0
BBX 9 11 0 0
BITMAP
001A491000
0066970000
1800103100
7500008600
8300008800
8300006900
6500002B00
4800000E10
0D00006F60
07A239B9B0
009FD50060
ENDCHAR
STARTCHAR uhungarumlaut
ENCODING 369
SWIDTH 501 0
DWIDTH 8 0
BBX 8 11 0 0
BITMAP
001A4810
00669700
00001000
83000010
B1000590
A20005C0
850005C0
4B000AE0
0B607BC3
02BE9059
00000015
ENDCHAR
STARTCHAR Uogonek
ENCODING 370
SWIDTH 571 0
DWIDTH 9 0
BBX 10 11 0 -3
BITMAP
1C00003500
5700005900
6600005B00
5700002C00
3900000D10
0C00000D50
0A50007FB0
02D86B85F0
003A934B40
0000008700
0000001684
ENDCHAR
STARTCHAR uogonek
ENCODING 371
SWIDTH 501 0
DWIDTH 8 0
BBX 9 11 0 -3
BITMAP
4100000000
B200036000
B10005B000
940005C000
680007D000
1D202DE100
05D9C37600
002513B900
00000B2000
000008A710
0000000100
ENDCHAR
STARTCHAR Wcircumflex
ENCODING 372
SWIDTH 703 0
DWIDTH 11 0
BBX 11 14 0 0
BITMAP
000007200000
00001EC10000
0001C6C90000
000340160000
000000000000
000000000000
900000001700
D10000000F20
C20000000A70
B300730005B0
9500780001E0
6900BE1001C0
1D49B7B22B60
04C8005ED600
ENDCHAR
STARTCHAR wcircumflex
ENCODING 373
SWIDTH 656 0
DWIDTH 11 0
BBX 10 12 0 0
BITMAP
0000180000
00006F8000
0005D5E400
0006104300
0000000000
2300000000
9400000061
C1001B0049
B1002D000D
85004F100E
2C24DCA38C
03DD607BB3
ENDCHAR
STARTCHAR Ycircumflex
ENCODING 374
SWIDTH 403 0
DWIDTH 6 0
BBX 7 15 0 -1
BITMAP
00180000
007F7000
05C5E300
26104300
A2000610
5B000C10
0A903D00
008DD800
0002F200
0003B000
00076000
000B2000
000C0000
000D1000
00020000
ENDCHAR
STARTCHAR ycircumflex
ENCODING 375
SWIDTH 487 0
DWIDTH 8 0
BBX 8 20 0 -8
BITMAP
00045000
000BE300
00999D00
01600600
00000000
70000070
B10000B0
930000C2
680000B4
1C1001D5
05B45CD7
00398137
00000038
00000048
00000056
00000075
230000A3
1D3000D0
04E84A70
0018C800
ENDCHAR
STARTCHAR Ydieresis
ENCODING 376
SWIDTH 403 0
DWIDTH 6 0
BBX 7 14 0 -1
BITMAP
02305000
0AB2F400
20101000
A2000610
5B000C10
0A903D00
008DD800
0002F200
0003B000
00076000
000B2000
000C0000
000D1000
00020000
ENDCHAR
STARTCHAR Zacute
ENCODING 377
SWIDTH 571 0
DWIDTH 9 0
BBX 9 14 0 0
BITMAP
0000170000
0002D30000
0005200000
0000000000
5CCB920000
42004C1000
0000066000
0000075000
00015E8400
02CCFE8810
0000C20000
0009500000
003C015880
002EEEC830
ENDCHAR
STARTCHAR zacute
ENCODING 378
SWIDTH 459 0
DWIDTH 7 0
BBX 7 12 0 0
BITMAP
00036000
005C1000
00710000
01341000
7DAAC100
31008500
0000A300
1457F710
39BE5300
01D40000
08D12690
05DFDA30
ENDCHAR
STARTCHAR Zdotaccent
ENCODING 379
SWIDTH 571 0
DWIDTH 9 0
BBX 9 13 0 0
BITMAP
0008200000
0006200000
0000000000
5CCB920000
42004C1000
0000066000
0000075000
00015E8400
02CCFE8810
0000C20000
0009500000
003C015880
002EEEC830
ENDCHAR
STARTCHAR zdotaccent
ENCODING 380
SWIDTH 459 0
DWIDTH 7 0
BBX 7 11 0 0
BITMAP
00082000
00052000
01341000
7DAAC100
31008500
0000A300
1457F710
39BE5300
01D40000
08D12690
05DFDA30
ENDCHAR
STARTCHAR Zcaron
ENCODING 381
SWIDTH 571 0
DWIDTH 9 0
BBX 9 13 0 0
BITMAP
0083291000
001AD40000
0001100000
5CCB920000
42004C1000
0000066000
0000075000
00015E8400
02CCFE8810
0000C20000
0009500000
003C015880
002EEEC830
ENDCHAR
STARTCHAR zcaron
ENCODING 382
SWIDTH 459 0
DWIDTH 7 0
BBX 7 11 0 0
BITMAP
07329100
00AD5000
01451000
7DAAC100
31008500
0000A300
1457F710
39BE5300
01D40000
08D12690
05DFDA30
ENDCHAR
STARTCHAR florin
ENCODING 402
SWIDTH 376 0
DWIDTH 6 0
BBX 10 17 -2 -5
BITMAP
0000013000
00004EBD40
0000D202D2
0004A00001
0007800000
0008800000
0008A20000
01CCEBC500
0002C00000
0002B00000
0003B00000
0004A00000
0004A00000
4505900000
1C46800000
01AE700000
0001000000
ENDCHAR
STARTCHAR AEacute
ENCODING 508
SWIDTH 960 0
DWIDTH 15 0
BBX 15 14 0 0
BITMAP
0000000036000000
00012005C1000000
008AAC1610000000
067004B000000000
0A000086EEDDCC60
0A00002CC1000010
1800000DC0000000
3700000AC0013520
4A54332BFBBBA600
7C65689CA0000000
2A00000680000000
2C00000580000000
0E000007A1124550
0A100009BEFEDB70
ENDCHAR
STARTCHAR aeacute
ENCODING 509
SWIDTH 881 0
DWIDTH 14 0
BBX 14 13 0 -1
BITMAP
00000003600000
0000004C200000
00000061000000
00000000000000
007EA1008CB300
00205D1A603C00
000006D9000C00
05CCBAF5019A00
6B3007FACC7000
A2000069000000
6B41246E500000
05BEFC84ADAAA5
00000000025510
ENDCHAR
STARTCHAR Oslashacute
ENCODING 510
SWIDTH 609 0
DWIDTH 10 0
BBX 10 14 0 -2
BITMAP
0000010000
0000780000
0007900000
0002002000
028A658000
1C547DB100
84000B7D20
A1003A06B0
93009400C2
4B01D000A4
0AC88028B0
006FDCB600
0049000000
0021000000
ENDCHAR
STARTCHAR oslashacute
ENCODING 511
SWIDTH 487 0
DWIDTH 8 0
BBX 8 10 0 0
BITMAP
00005200
00099000
00280000
00379680
08B67EA0
68003CD1
A201D395
940A71D3
3C8B3CA0
07EED810
ENDCHAR
STARTCHAR Scommaaccent
ENCODING 536
SWIDTH 627 0
DWIDTH 10 0
BBX 10 15 0 -5
BITMAP
0004897200
0098325D60
00C0000020
0089000000
0006C60000
000018D600
52000019B1
8600000088
1B61000097
006BCCCD80
0000011000
0000300000
0000C30000
0000A40000
0000D10000
ENDCHAR
STARTCHAR scommaaccent
ENCODING 537
SWIDTH 514 0
DWIDTH 8 0
BBX 8 13 0 -5
BITMAP
00331000
2CA9C400
58003800
1C621100
0169BC91
0000008A
7920008A
06CDDEB2
00000000
00022000
0006A000
0004A000
00086000
ENDCHAR
STARTCHAR circumflex
ENCODING 710
SWIDTH 375 0
DWIDTH 6 0
BBX 6 4 0 8
BITMAP
004500
00BF30
09A8E0
160061
ENDCHAR
STARTCHAR caron
ENCODING 711
SWIDTH 375 0
DWIDTH 6 0
BBX 5 3 1 7
BITMAP
832910
1AD400
011000
ENDCHAR
STARTCHAR breve
ENCODING 728
SWIDTH 224 0
DWIDTH 4 0
BBX 4 2 0 6
BITMAP
6383
1850
ENDCHAR
STARTCHAR dotaccent
ENCODING 729
SWIDTH 152 0
DWIDTH 2 0
BBX 2 2 0 7
BITMAP
28
17
ENDCHAR
STARTCHAR ring
ENCODING 730
SWIDTH 333 0
DWIDTH 5 0
BBX 4 4 1 6
BITMAP
0010
38A2
7154
1760
ENDCHAR
STARTCHAR ogonek
ENCODING 731
SWIDTH 254 0
DWIDTH 4 0
BBX 4 4 0 -3
BITMAP
0550
6910
7A31
0352
ENDCHAR
STARTCHAR tilde
ENCODING 732
SWIDTH 402 0
DWIDTH 6 0
BBX 6 3 0 6
BITMAP
196017
945CC3
400000
ENDCHAR
STARTCHAR hungarumlaut
ENCODING 733
SWIDTH 264 0
DWIDTH 4 0
BBX 4 3 0 6
BITMAP
1B39
75A6
0010
ENDCHAR
STARTCHAR Wgrave
ENCODING 7808
SWIDTH 703 0
DWIDTH 11 0
BBX 11 11 0 0
BITMAP
00001A100000
000005B00000
000000000000
900000001700
D10000000F20
C20000000A70
B300730005B0
9500780001E0
6900BE1001C0
1D49B7B22B60
04C8005ED600
ENDCHAR
STARTCHAR wgrave
ENCODING 7809
SWIDTH 656 0
DWIDTH 11 0
BBX 10 9 0 0
BITMAP
0000670000
0000096000
2300000000
9400000061
C1001B0049
B1002D000D
85004F100E
2C24DCA38C
03DD607BB3
ENDCHAR
STARTCHAR Wacute
ENCODING 7810
SWIDTH 703 0
DWIDTH 11 0
BBX 11 11 0 0
BITMAP
000004500000
00006B100000
000070000000
900000001700
D10000000F20
C20000000A70
B300730005B0
9500780001E0
6900BE1001C0
1D49B7B22B60
04C8005ED600
ENDCHAR
STARTCHAR wacute
ENCODING 7811
SWIDTH 656 0
DWIDTH 11 0
BBX 10 11 0 0
BITMAP
0000044000
00007B1000
0000700000
0000000000
2300000000
9400000061
C1001B0049
B1002D000D
85004F100E
2C24DCA38C
03DD607BB3
ENDCHAR
STARTCHAR Wdieresis
ENCODING 7812
SWIDTH 703 0
DWIDTH 11 0
BBX 11 11 0 0
BITMAP
000040320000
0005F1C80000
000010100000
900000001700
D10000000F20
C20000000A70
B300730005B0
9500780001E0
6900BE1001C0
1D49B7B22B60
04C8005ED600
ENDCHAR
STARTCHAR wdieresis
ENCODING 7813
SWIDTH 656 0
DWIDTH 11 0
BBX 10 9 0 0
BITMAP
0003205000
000BA3F300
2301001000
9400000061
C1001B0049
B1002D000D
85004F100E
2C24DCA38C
03DD607BB3
ENDCHAR
STARTCHAR Ygrave
ENCODING 7922
SWIDTH 403 0
DWIDTH 6 0
BBX 7 14 0 -1
BITMAP
00940000
001C3000
20000000
A2000610
5B000C10
0A903D00
008DD800
0002F200
0003B000
00076000
000B2000
000C0000
000D1000
00020000
ENDCHAR
STARTCHAR ygrave
ENCODING 7923
SWIDTH 487 0
DWIDTH 8 0
BBX 8 17 0 -8
BITMAP
000A3000
0002C100
70000070
B10000B0
930000C2
680000B4
1C1001D5
05B45CD7
00398137
00000038
00000048
00000056
00000075
230000A3
1D3000D0
04E84A70
0018C800
ENDCHAR
STARTCHAR endash
ENCODING 8211
SWIDTH 287 0
DWIDTH 5 0
BBX 5 3 0 3
BITMAP
001100
8EDE40
100000
ENDCHAR
STARTCHAR emdash
ENCODING 8212
SWIDTH 512 0
DWIDTH 8 0
BBX 8 3 0 3
BITMAP
00000110
5CEEEDD8
11000000
ENDCHAR
STARTCHAR quoteleft
ENCODING 8216
SWIDTH 102 0
DWIDTH 2 0
BBX 2 5 0 7
BITMAP
50
A3
95
75
01
ENDCHAR
STARTCHAR quoteright
ENCODING 8217
SWIDTH 102 0
DWIDTH 2 0
BBX 2 5 0 7
BITMAP
50
A3
95
75
01
ENDCHAR
STARTCHAR quotesinglbase
ENCODING 8218
SWIDTH 102 0
DWIDTH 2 0
BBX 2 5 0 -1
BITMAP
20
93
95
76
13
ENDCHAR
STARTCHAR quotedblleft
ENCODING 8220
SWIDTH 234 0
DWIDTH 4 0
BBX 4 6 0 7
BITMAP
2060
B0B1
A3B3
77A4
2985
0010
ENDCHAR
STARTCHAR quotedblright
ENCODING 8221
SWIDTH 234 0
DWIDTH 4 0
BBX 4 6 0 7
BITMAP
2060
B0B1
A3B3
77A4
2985
0010
ENDCHAR
STARTCHAR quotedblbase
ENCODING 8222
SWIDTH 341 0
DWIDTH 5 0
BBX 4 5 1 -2
BITMAP
4080
B1B2
94A4
6894
1774
ENDCHAR
STARTCHAR dagger
ENCODING 8224
SWIDTH 375 0
DWIDTH 6 0
BBX 6 11 0 0
BITMAP
002000
00A000
00A100
007400
4BEED5
344911
002A00
002B00
002B00
001B00
000C00
ENDCHAR
STARTCHAR daggerdbl
ENCODING 8225
SWIDTH 375 0
DWIDTH 6 0
BBX 8 12 -1 0
BITMAP
000B0000
000D1000
000A3000
00075000
59ACCAA4
3556A235
3668C771
4777C772
0000B000
0000B000
0000B000
0000C000
ENDCHAR
STARTCHAR bullet
ENCODING 8226
SWIDTH 341 0
DWIDTH 5 0
BBX 4 4 1 2
BITMAP
0670
3FF5
2FF4
0330
ENDCHAR
STARTCHAR ellipsis
ENCODING 8230
SWIDTH 612 0
DWIDTH 10 0
BBX 10 3 0 0
BITMAP
0C609A05D1
4FC0FF0BF4
1D60AA06D1
ENDCHAR
STARTCHAR guilsinglleft
ENCODING 8249
SWIDTH 487 0
DWIDTH 8 0
BBX 8 7 0 0
BITMAP
00000062
00003C70
0007C200
02B70000
3D300000
AFC97400
01357BA0
ENDCHAR
STARTCHAR guilsinglright
ENCODING 8250
SWIDTH 403 0
DWIDTH 6 0
BBX 7 8 0 0
BITMAP
32000000
4D710000
018DB810
00003F40
0001B900
003C6000
07C30000
69100000
ENDCHAR
STARTCHAR fraction
ENCODING 8260
SWIDTH 309 0
DWIDTH 5 0
BBX 5 12 0 0
BITMAP
000180
000480
000840
000D00
004A00
009500
01E100
05A000
0B5000
2D0000
970000
A10000
ENDCHAR
STARTCHAR Euro
ENCODING 8364
SWIDTH 741 0
DWIDTH 12 0
BBX 12 12 0 0
BITMAP
000000000100
00000008DB40
000001A60010
00125DC72000
AEDDF9897000
100750000000
000C55784000
7ACE97431000
112A00000000
000B00000000
000960014793
0001AEEDB840
ENDCHAR
STARTCHAR trademark
ENCODING 8482
SWIDTH 1116 0
DWIDTH 18 0
BBX 18 10 0 0
BITMAP
9BBBA9875670000180
00235D569CF40007C0
00000C0000AD102EA0
00000C0000A9ECEDA0
00000C0000B32413B0
00000B2000B20001D0
0000095000C20000E0
0000077000C20000D3
000005B000C20000C5
000002E200510000A6
ENDCHAR
STARTCHAR minus
ENCODING 8722
SWIDTH 287 0
DWIDTH 5 0
BBX 5 3 0 3
BITMAP
001100
8EDE40
100000
ENDCHAR
STARTCHAR commaaccent
ENCODING 63171
SWIDTH 375 0
DWIDTH 6 0
BBX 3 4 1 -5
BITMAP
0300
1E10
0D10
2B00
ENDCHAR
STARTCHAR fi
ENCODING 64257
SWIDTH 551 0
DWIDTH 9 0
BBX 9 13 -1 -1
BITMAP
0000130000
0004DAD400
000C123D20
0047046010
0075000000
0086007100
008920A200
1CBFDEE300
000D309600
0006B08900
0000D56B00
00004B3C00
0000000200
ENDCHAR
STARTCHAR fl
ENCODING 64258
SWIDTH 723 0
DWIDTH 12 0
BBX 9 12 -1 0
BITMAP
0000130000
0004DAD400
000C102D20
004700B010
007500E000
008600E100
008920E100
1CBFDEF200
000D30E200
0006B0E200
0000D5D100
00004BB000
ENDCHAR
STARTCHAR .notdef
ENCODING -1
SWIDTH 375 0
DWIDTH 6 0
BBX 1 1 0 0
BITMAP
00
ENDCHAR
STARTCHAR .null
ENCODING -1
SWIDTH 0 0
DWIDTH 0 0
BBX 1 1 0 0
BITMAP
00
ENDCHAR
STARTCHAR nonmarkingreturn
ENCODING -1
SWIDTH 375 0
DWIDTH 6 0
BBX 1 1 0 0
BITMAP
00
ENDCHAR
ENDFONT
